<?xml version="1.0" encoding="utf-8"?>
<!-- Generator: Adobe Illustrator 18.1.1, SVG Export Plug-In . SVG Version: 6.00 Build 0)  -->
<svg version="1.1" xmlns="http://www.w3.org/2000/svg" xmlns:xlink="http://www.w3.org/1999/xlink" x="0px" y="0px"
	 viewBox="0 0 768 1024" enable-background="new 0 0 768 1024" xml:space="preserve">
<g id="background">
	<rect fill="#FFE4AD" width="768" height="1024"/>
	<circle fill="#FFDD72" cx="135.2" cy="112.4" r="52.3"/>
</g>
<g id="elements">
	<g id="appletree_1_">
		<path id="root_1_" fill="#7C6C5F" d="M648.3,418.2c1.2-0.3,2.4-0.4,3.6-0.6c-0.8-1.2-1.5-2.4-2.2-3.8c-3.8,0.5-7.6-1.2-12.8-5.2
			c2.6-3,5-6.6,7.6-9.6c-0.8-0.8-1.5-1.7-2.4-2.6c-1.5,4.9-5.6,8.4-12.3,9.6c-10.3,1.8-20.8,2.2-30,3.2c0.6-11.5,1.8-22.9,1.6-34.3
			c-0.1-4.3,0.5-7.7,2.2-10.4c-0.9-0.9-1.8-1.8-2.5-2.8c-0.5,0.9-0.9,1.9-1.4,2.8c-9.8-10.8-20.8-20.9-5.2-36.7
			c-3.7,1.6-5.5,2.4-7.5,3.2c-0.6-1.9-0.9-3.6-1.1-5.2c-0.6,0.1-1.1,0.3-1.7,0.4c0.3,4.1-0.4,8.4-0.6,12.9c-2.3-0.9-3.9-1.6-5.5-2.2
			c0,0,0,0.1,0,0.1c2.3,3.3,4.6,6.7,6.9,10c-14.4-3.1-26.8-1.4-38.4,6.6c2.6-0.5,5.3-1,7.9-1.5c0.4,0.9,0.8,1.6,1.1,2.5
			c-0.4,0.2-0.8,0.5-1.1,0.5c1.2,0,2.5,0,3.7,0c1.9-2,3.2-4.5,5.1-5.1c14-4.6,30.6,4.8,33.5,19.7c4,20.6,0.5,41.1-18.7,52.7
			c-9.6,5.8-19.7,11.3-30.2,14.7c-19.7,6.3-39.9,11-59.8,16.5c-4,1.1-7.8,2.7-12.9,4.4c1.8-5.3,3.1-8.8,4.3-12.4
			c2-5.8,4.5-9.8,7.8-12.2c-0.2-0.8-0.4-1.5-0.5-2.3c-0.3,0.2-0.6,0.5-0.8,0.7c-3.5-11.5-7.7-22.2-9.7-33.1c-0.8-4.4-1.5-8.6-2-13.6
			c-1.1,0-2.2,0-3.4,0c0.7,2,0.7,4.3,0.2,7.5c-11.1-3.6-22.4-7.2-33.7-10.9c0.6,1.4,1.2,2.9,2.4,5.5c-1.2,0.2-2.3,0.4-3.5,0.5
			c0.5,0.7,0.9,1.4,1.3,2.1c4.4-1.4,9.3-1.5,14.8,0.2c-4.6,3.9-8.5,7.2-12,10c1,2.3,1.8,4.2,2.8,6.5c0.9-0.1,1.7-0.3,2.6-0.5
			c1.3-3.8,2.2-7.8,4.6-9.7c4.8-3.9,11.6-5.7,16.6-0.4c4.8,5.1,10.5,11.1,11.7,17.5c3.6,20.4-2.7,38.8-18.6,51.3
			c-18.8,14.8-39.2,27.3-58.9,40.7c-10.1-20.7-15.5-43.6-17.9-67.5c-3.2-32.5-4-64.8,2.9-96.9c1.2-5.6,2.8-10.6,9.6-12.1
			c0.1,0,0.1,0,0.2,0c0-1,0-1.9,0-2.9c-1.1,0-2.1-0.1-3.2-0.2c-0.2-3.4-1.6-7.2-0.3-9.6c8.3-16.1,15.3-33.4,26.3-47.3
			c17.4-22,40.9-32.6,69.5-28c10.9,1.8,14.1,4.1,13.8,13.1c2.2,0,4.3,0,6.4,0c-0.3-5-0.6-9.6-0.9-14.4c4-2.4,7.6-2.6,10.9-1
			c0.4-1,1.1-1.9,2-2.6c-1.3-0.9-2.6-1.9-4-2.9c1.6-0.4,3.3-0.9,4.9-1.3c-1.1-1.1-2.1-2.2-3.4-3c-3.6,4.5-9.1,6.9-15.7,6.3
			c-7.6-0.7-15.1-2.8-23.3-4.3c1.2-2.6,2.2-5.1,3.5-7.4c-1.1-0.5-2.3-1-3.4-1.5c-1.4,4.6-4.5,8.1-9.8,9.5
			c-22.2,6.2-42.7,15.4-58.6,32.4c-5-10-9.6-19.4-14.3-28.7c-3.8-7.6-8.2-14.9-11.7-22.6c-3.3-7.4-2.5-15,1.8-22
			c7.3-11.9,23.1-19.1,36.6-16.9c4.9,0.8,7.6,3,7.7,7.6c0.6,0,1.2-0.1,1.8-0.1c1.9-1.7,3.8-3.3,6-5.2c-22.3-9-42.1-5-58.8,12.4
			c-2.2-5.2-4.8-9.9-6.8-14.8c-0.3,0.7-0.6,1.3-0.9,2c1,1.8,1.4,4,1.5,6.2c0.3,10.7-0.7,21.4-1.2,32.7c-16-5-30.6-3.8-44.8,0.3
			c-7.2,2.1-11.5-0.8-15.5-6c-0.7-0.9-1.2-1.8-1.6-2.6c-1,0.4-2,0.8-3.1,1.2c2.8,3.8,5.6,7.5,8.4,11.4c-5.6,4-10.2,6-14.2,6
			c-0.2,0.7-0.4,1.4-0.5,2.1c2-0.1,4-0.1,6.1-0.3c0.1,0.6,0.3,1.2,0.4,1.8c-4.2,3.8-8.5,7.4-13.9,12.1c4.2-0.2,8.2-1.5,9.4,1.5
			c1.2,0,2.4,0,3.6,0c0.7-4,1.3-7.8,3.5-10c5.6-5.6,12.8-10.1,20-13.4c18.6-8.4,46.3,0.5,56.2,18.5c-2.4-0.4-4.7-0.6-6.8-0.9
			c0.3,1,0.8,1.9,1.3,2.8c0.4-0.1,0.8-0.1,1.2-0.1c10.6,0.1,22.7,21.7,18,34c-6.4,16.6-14.3,32.5-21.6,48.7c-0.1-2.1,0-4.3,0-6.5
			c-1.6,1.6-3.4,2.9-5.3,4c2.1,4.9,2.2,10,1.2,15.7c-2.6,15.4-5.1,30.8-7.3,46.3c-1.4,9.7-2.1,19.6-3.1,29.7
			c-9.5-5.2-18.5-9.4-26.5-15c-3.1-2.2-5.1-7.5-5.6-11.7c-0.2-1.3-0.1-2.6,0.2-3.7c-0.9-0.2-1.8-0.3-2.6-0.4c0.1,3.7,0,7.3-1.1,10.7
			c-7.7,0.2-11.6-3.4-11.6-11.6c0-3.2-0.9-6.4-1.5-9.6c-1-5.8-0.7-11,0.9-15.6c-0.6-0.6-1.2-1.1-2.2-1.4c-0.5,2-1.1,4.1-1.6,6.4
			c-5.6-9.4-10.5-17.8-15.3-25.8c-1,2.2-2,4.4-2.8,6.7c0.8,0.5,1.4,1,2,1.6c10.5,12,13.5,27.1,15.4,44.4
			c-32.1-14.7-62.7-10-93.5-1.5c-3.4,0.9-7.4,0.4-10.9-0.6c-28.1-8.3-40.6-30.8-33.5-60c5.1-20.9,21.9-31.4,42.6-27.1
			c5.6,1.2,8.3,3.5,7.6,8.4c4.5-0.7,8.6-1.4,12.5-2.8c-3.1-2-6.2-4-9.3-5.8c-19.6-11-44.4-3.3-55,17.1c-2.5,4.7-4.2,9.9-6.4,15.2
			c-5.6-13.7,8.5-46.9,23.5-54.3c0.3-0.1,0.6-0.3,0.9-0.4c0-1.6,0-3.2,0-4.8c-2.3,1.7-4.6,3.3-7,4.9c1-3.7,2.9-6.8,4.8-9.8
			c-2.4-0.7-5-0.4-7.6-0.1c0.1,2.5-0.7,5.5-1.7,7.7c-3.5,7.4-8.2,14.2-11.6,21.7c-8.7,19.3-11.2,39.4-4.3,60.3
			c-10.7-2.4-17.6-8-20.4-16.1c-1.9,0.6-3.8,0.8-5.7,0.8c3.2,4.2,6.4,8.7,9.8,13.2c-6.3,1.4-10.7-0.2-14.3-3c-0.6,0.7-1.2,1.4-1.9,2
			c1.1,0.3,2.1,0.6,3.2,0.8c0,1,0,1.9-0.1,2.9c-1.6,0.6-3.1,1.2-4.7,1.8c1.9,1,3.6,2,5.3,3.2c12.1-5.3,27.4-3.1,37,6.7
			c9.8,10.1,20.2,19.5,30.4,29.3c-6.8,4.5-15.2,10.6-24,15.9c-2.9,1.8-6.3,2.4-9.7,2.1c-1.8,2.2-3.7,4.3-6,5.8
			c1.1,0,2.2,0.1,3.3,0.2c-6.7,5.4-13.9,10.3-21.7,13.1c-2.3,0.8-5.4,1.1-8.2,0.7c0,1.2,0,2.5,0,3.7c3.4-0.7,7.1-1.4,11.1-2.4
			c-7.9,13.1-15.8,22.9-27.1,25.8c0,1.8,0,3.5,0,5.3c2.5-1.1,5.1-2.1,7.6-3.2c0.7,1,1.4,2,2.1,3c-2.1,3-4.3,6.1-6.5,9.1
			c1.7,0.2,3.4,0.5,5.1,0.9c0.1-0.4,0.3-0.7,0.5-1c11.2-17.6,23.1-34.7,40.6-46.4c4-2.7,8.9-4,13.3-6c0.4,0.6,0.7,1.2,1.1,1.8
			c-1.2,2.5-2.5,5.1-3.3,6.8c1.1,1.5,2.1,2.9,3.1,4.4c2.5-0.1,5.1,0.2,7.6,0.4c-0.9-6.5-0.7-12.6,3.5-18.1
			c10.9-14.2,26-21.7,43.1-28.5c-0.1,1.4-0.2,3.1-0.5,4.1c1.1,0,2.2,0,3.3,0c0.8-4,4.3-6.7,10.1-7c43-2.4,79.6,11.8,108.5,45.3
			c1.7,2,2.8,4.5,5.1,8.2c-5.5-0.8-8.8-1.5-12.2-1.6c-3.7-0.1-7.5,0.3-11.2,0.7c-8.5,0.9-13.4,0.2-16.9-3.2
			c-1.3,1.1-2.4,2.3-3.7,3.2c1.5,1,2.9,2.1,4.3,3.2c-6.6,4.7-13.1,6.5-19.6,5.3c0,1.1,0,2.3,0,3.3c2.6-0.2,5.3-0.4,7.9-0.8
			c0.2,1,0.5,2,0.7,3c-5.2,2.6-10.5,5.1-14.9,7.3c0.8,1.6,1.6,3.1,2.5,5.1c1.5,0,3,0,4.5,0c-0.2-4,1.8-6,6.1-8.2
			c4.3-2.2,7.7-6.2,12-8.4c6.2-3.2,12.8-5.6,19.2-8.3c-2.7,3.1-4.4,7-5.4,10c1.3,0,2.7,0,4,0c1.8-5,5.1-6.5,10-6.1
			c7,0.5,11.6,4,13.3,11.6c4.8,22.7,11.2,45.1,14.5,68c3,20.8,3.9,42.2,3.8,63.3c0,9-4.8,18-7.6,27.5c-7.8-6.6-13.1-12.9-19.7-16.5
			c-9.3-5-12.5-13-13.1-22.2c-0.2-2.6,0.2-6,1.2-8.8c-1.7-1.5-3.1-3.4-4.6-5.3c0,1.2,0.1,2.3,0.1,3.5c-1.7-2.5-3.5-4.8-5.3-7.1
			c-0.7,1.4-1.2,2.7-1.6,4.2c3.1,2.5,5.2,5.9,6.2,10.5c1,5.1,1.6,10.3,2.3,14.6c-19.6-5.3-39.3-10.4-58.8-15.9
			c-1.6-0.4-2.9-1.1-3.9-1.9c-1.2,0.7-2.4,1.3-3.7,1.6c3.9,1.9,8.1,3.7,12.4,5.8c-7.1,2.7-12.7,4.6-18.3,6.9
			c-8.6,3.5-14.9,3.6-20.5-1c-0.9,0.8-1.8,1.6-2.7,2.3c2.1,1.1,4.1,2.6,5.9,4.8c-4.4,5.1-7.3,8-10.6,9.8c0.9,0.5,1.8,0.9,2.8,1.4
			c5.9-4.7,13.3-8,21-10.6c0.2,2.9,0.4,4.4,0.4,6.1c0,0.5,0,1.4,0,1.4c1.3,0,2.6,0,3.9,0c0.1-9,4.6-13.7,15.4-15.3
			c38-5.5,75,23.8,76.6,63.6c1.3,31.6-0.4,63.7-1.2,95.7h43c-0.1,0-0.1-0.6-0.1-1c-1.1-14.4-3-28.6-3.1-43
			c-0.1-17.8,12.9-28.7,29.8-26.2c5.2,0.8,8.9,2.9,10.5,7.5c1.1,0,2.2,0,3.3,0c-0.3-0.2-0.6-0.4-0.7-0.7c-3.9-10.2-12.9-9.3-21.1-12
			c-8.2-2.7-11.7,4.5-18.1,4.6c0.1-1.3,0-2.2,0.2-3c7-33.9,12.6-67.9,7.9-102.7c-1-7-0.2-12.7,6.2-16.8c7.9-5,15-3.8,22.5,1.2
			c4.9,3.2,8.2,6.8,8,12.3c1.2,0.1,2.5,0,3.8,0c0.3-2.2,0.5-4.1,0.8-6.1c4.1,0,7,0,12.1,0c-10.2-3-18.3-6.7-26.3-9.8
			c13.7-3.8,25.8-0.1,32.8,8c1.1,0.2,2.2,0.4,3.2,0.1c-2-1.5-4-2.9-6-4.3c0.7-1.4,1.3-2.7,2-4.1c1.4,0.4,2.8,0.8,4.3,1.2
			c-0.3-0.7-0.4-1.3-0.5-2c-0.6,0.1-1.2,0.1-1.6,0.1c-10.9-1.5-21.6-3.7-32.5-5.6c-0.4-0.9-0.7-1.8-1.1-2.7c1.9-1.2,3.7-2.5,5.5-3.8
			c-1.1-0.7-2.1-1.4-3.2-1.7c-1.9,4.3-5.4,7.6-10.2,8.8c-6.9,1.7-13.8,3.5-22.1,5.7c2.3-7,3.3-14.5,6.8-20.5
			c14.8-25,35-44.1,61.6-55.3c22.5-9.5,45.2-18,70.1-10c5.1,1.6,11.3,2.2,9.9,10.5c-0.7,4.1-2.6,7.5-5.3,9.9c0.6,1,1.2,2,1.7,3
			c0.9-1.2,1.8-2.5,2.7-3.8c2.3,2.6,3,4.7,2.8,6.5c1.1-0.3,2.1-0.7,3.2-0.9c-1.2-2.2-2.1-4.8-2.4-7.3c-0.2-1.6,1-4.2,2.3-5
			c1.6-0.9,4.7-0.9,6,0c12.3,9.5,20,22.2,23.3,38.2c0.9,0,1.9,0,2.8,0c-0.9-14,1.2-17.4,13.6-19c0-1.2,0-2.5,0.1-3.7
			c-3.8,0.6-8.2,1.2-13,2c1.8-2.6,3.3-4.9,4.8-7.2c-3.4,1.9-6.8,3.8-11,6.1c-10.7-17.7-23.8-33-42.4-39.1
			c13.5-8.5,28.3-16.4,41.4-26.6c12.2-9.5,25-14.2,39.9-12.6c12.1,1.3,22.8,10,25.6,19c0.8,0,1.6,0,2.3,0c2.9-2,5.1-3.2,7-4.5
			C657.1,423,652.7,420.7,648.3,418.2z"/>
		<g opacity="0.72">
			<path fill="#7C5C54" d="M190.8,427.8c-1.4,1.2-2.8,2.3-4.2,3.5c-1.2,1-2.5,1.9-3.8,2.8c0.2,0.4,0.5,0.7,0.7,1.1
				c2.5-0.1,5.1,0.2,7.6,0.4C190.8,432.9,190.6,430.3,190.8,427.8z"/>
			<path fill="#7C5C54" d="M128,475.4c-0.8-1.2-1.1-2.8-0.6-4.6c0.3-1.2,0.7-2.4,1.1-3.7c-1.8,2.5-3.5,5-5.3,7.4
				C124.8,474.7,126.4,475,128,475.4z"/>
			<path fill="#7C5C54" d="M353.7,404.9c-5.4-2.9-10.5-5.7-15.3-9.1c-3.1-2.2-5.1-7.5-5.6-11.7c-0.2-1.3-0.1-2.6,0.2-3.7
				c-0.9-0.2-1.8-0.3-2.6-0.4c0.1,3.7,0,7.3-1.1,10.7c-7.7,0.2-11.6-3.4-11.6-11.6c0-3.2-0.9-6.4-1.5-9.6c-1-5.8-0.7-11,0.9-15.6
				c-0.6-0.6-1.2-1.1-2.2-1.4c-0.5,2-1.1,4.1-1.6,6.4c-5.6-9.4-10.5-17.8-15.3-25.8c-1,2.2-2,4.4-2.8,6.7c0.8,0.5,1.4,1,2,1.6
				c10.5,12,13.5,27.1,15.4,44.4c-32.1-14.7-62.7-10-93.5-1.5c-3.4,0.9-7.4,0.4-10.9-0.6c-28.1-8.3-40.6-30.8-33.5-60
				c5.1-20.9,21.9-31.4,42.6-27.1c5.6,1.2,8.3,3.5,7.6,8.4c4.5-0.7,8.6-1.4,12.5-2.8c-3.1-2-6.2-4-9.3-5.8
				c-19.6-11-44.4-3.3-55,17.1c-2.5,4.7-4.2,9.9-6.4,15.2c-5.6-13.7,8.5-46.9,23.5-54.3c0.3-0.1,0.6-0.3,0.9-0.4v-4.8
				c-2.3,1.7-4.6,3.3-7,4.9c1-3.7,2.9-6.8,4.8-9.8c-2.4-0.7-5-0.4-7.6-0.1c0.1,2.5-0.7,5.5-1.7,7.7c-3.5,7.4-8.2,14.2-11.6,21.7
				c-8.7,19.3-11.2,39.4-4.3,60.3c-10.7-2.4-17.6-8-20.4-16.1c-1.9,0.6-3.8,0.8-5.7,0.8c3.2,4.2,6.4,8.7,9.8,13.2
				c-6.3,1.4-10.7-0.2-14.3-3c-0.6,0.7-1.2,1.4-1.9,2c1.1,0.3,2.1,0.6,3.2,0.8c0,1,0,1.9-0.1,2.9c-1.6,0.6-3.1,1.2-4.7,1.8
				c1.9,1,3.6,2,5.3,3.2c12.1-5.3,27.4-3.1,37,6.7c9.8,10.1,20.2,19.5,30.4,29.3c-6.8,4.5-15.2,10.6-24,15.9
				c-2.9,1.8-6.3,2.4-9.7,2.1c-1.8,2.2-3.7,4.3-6,5.8c1.1,0,2.2,0.1,3.3,0.2c-6.7,5.4-13.9,10.3-21.7,13.1c-2.3,0.8-5.4,1.1-8.2,0.7
				v3.7c3.4-0.7,7.1-1.4,11.1-2.4c-7.9,13.1-15.8,22.9-27.1,25.8v5.3c2.5-1.1,5.1-2.1,7.6-3.2c0.5,0.8,1.1,1.5,1.6,2.3
				c1.9-5.5,4.4-10.9,8-15.5c4.2-5.3,9.7-9.2,15.6-12.4c4.3-2.3,8.8-4.3,13.2-6.5c1.1-0.8,2.2-1.6,3.4-2.4c1.9-1.2,3.9-2.2,6-3.1
				c4-2.7,7.6-5.9,11.2-9.1c9.7-8.8,19.3-17.5,31-23.4c19.2-9.6,43.8-15.9,65-9.5c12.4-0.7,25.3,1.7,35.9,6.3
				c9.2,4,17.4,11.1,25.2,17.4c3.7,3,7.1,6.1,10.1,9.6C353.7,412.4,353.7,408.7,353.7,404.9z"/>
			<path fill="#7C5C54" d="M240.8,599.7c0.9,0.5,1.8,0.9,2.8,1.4c1.8-1.4,3.8-2.7,5.8-3.9c6.7-6.5,15.9-11.1,23.5-14
				c14.2-5.4,30.1-2.5,44.4,1.1c16,3.9,29.5,12,38.5,26.1c8.3,13.1,13,28.6,16.3,43.6c0.2,0.8,0.3,1.6,0.5,2.5
				c0.3-1.7,0.6-3.3,0.8-5c1.2-7.8,1.7-15.4,1.4-23.3c-0.2-5-0.6-10-0.7-14.9c-7-6.2-12.1-11.9-18.4-15.3c-9.3-5-12.5-13-13.1-22.2
				c-0.2-2.6,0.2-6,1.2-8.8c-1.7-1.5-3.1-3.4-4.6-5.3c0,1.2,0.1,2.3,0.1,3.5c-1.7-2.5-3.5-4.8-5.3-7.1c-0.7,1.4-1.2,2.7-1.6,4.2
				c3.1,2.5,5.2,5.9,6.2,10.5c1,5.1,1.6,10.3,2.3,14.6c-19.6-5.3-39.3-10.4-58.8-15.9c-1.6-0.4-2.9-1.1-3.9-1.9
				c-1.2,0.7-2.4,1.3-3.7,1.6c3.9,1.9,8.1,3.7,12.4,5.8c-7.1,2.7-12.7,4.6-18.3,6.9c-8.6,3.5-14.9,3.6-20.5-1
				c-0.9,0.8-1.8,1.6-2.7,2.3c2.1,1.1,4.1,2.6,5.9,4.8C247,595,244,598,240.8,599.7z"/>
			<path fill="#7C5C54" d="M361.2,661.1c0.1,4,0.1,8.1,0.1,12.1c0.2-0.6,0.3-1.2,0.5-1.8c0.2-0.8,0.5-1.5,1-2
				C362.3,666.6,361.8,663.8,361.2,661.1z"/>
			<path fill="#7C5C54" d="M556.6,354.5c-0.4,0.2-0.8,0.5-1.1,0.5h3.7c1.9-2,3.2-4.5,5.1-5.1c14-4.6,30.6,4.8,33.5,19.7
				c0.8,3.9,1.3,7.9,1.4,11.7c1.4,1.6,2.4,3.5,3,5.5c0.2-4,0.3-7.9,0.2-11.9c-0.1-4.3,0.5-7.7,2.2-10.4c-0.9-0.9-1.8-1.8-2.5-2.8
				c-0.5,0.9-0.9,1.9-1.4,2.8c-9.8-10.8-20.8-20.9-5.2-36.7c-3.7,1.6-5.5,2.4-7.5,3.2c-0.6-1.9-0.9-3.6-1.1-5.2
				c-0.6,0.1-1.1,0.3-1.7,0.4c0.3,4.1-0.4,8.4-0.6,12.9c-2.3-0.9-3.9-1.6-5.5-2.2v0.1c2.3,3.3,4.6,6.7,6.9,10
				c-14.4-3.1-26.8-1.4-38.4,6.6c2.6-0.5,5.3-1,7.9-1.5C555.8,352.9,556.2,353.6,556.6,354.5z"/>
			<path fill="#7C5C54" d="M388.8,228.8c7.9,8.5,13.4,19,14.7,30.5c0,0,0,0,0,0c1.2-1.6,2.3-3.2,3.4-4.8c-3.3-6.6-6.5-13-9.7-19.4
				c-3.8-7.6-8.2-14.9-11.7-22.6c-3.3-7.4-2.5-15,1.8-22c7.3-11.9,23.1-19.1,36.6-16.9c4.9,0.8,7.6,3,7.7,7.6c0.6,0,1.2-0.1,1.8-0.1
				c1.9-1.7,3.8-3.3,6-5.2c-22.3-9-42.1-5-58.8,12.4c-2.2-5.2-4.8-9.9-6.8-14.8c-0.3,0.7-0.6,1.3-0.9,2c1,1.8,1.4,4,1.5,6.2
				c0.3,10.7-0.7,21.4-1.2,32.7c-16-5-30.6-3.8-44.8,0.3c-7.2,2.1-11.5-0.8-15.5-6c-0.7-0.9-1.2-1.8-1.6-2.6c-1,0.4-2,0.8-3.1,1.2
				c2.8,3.8,5.6,7.5,8.4,11.4c-5.6,4-10.2,6-14.2,6c-0.2,0.7-0.4,1.4-0.5,2.1c2-0.1,4-0.1,6.1-0.3c0,0,0,0,0,0
				c14.1-9.9,31.1-15.6,48.5-13.5C369,214.5,380.1,219.4,388.8,228.8z"/>
			<path fill="#7C5C54" d="M649.3,418.2c1.2-0.3,2.4-0.4,3.6-0.6c-0.8-1.2-1.5-2.4-2.2-3.8c-3.8,0.5-7.6-1.2-12.8-5.2
				c2.6-3,5-6.6,7.6-9.6c-0.8-0.8-1.5-1.7-2.4-2.6c-1.5,4.9-5.6,8.4-12.3,9.6c-10.3,1.8-20.8,2.2-30,3.2c0.2-3.7,0.5-7.4,0.7-11
				c0,0.1,0,0.1-0.1,0.2c-7.4,19.4-27.5,33.9-45.7,42.1c-14.8,6.7-30.6,8.4-46.2,12c-11.7,2.7-23.2,6.7-35.2,8
				c-4.6,2.8-9.6,4.9-14.5,7.4c-20.1,10.3-31.8,31-50.2,43.7c-4.3,3-9.5-2.8-7.7-6.7c-9.9-20.5-15.3-43.2-17.6-66.9
				c-3.2-32.5-4-64.8,2.9-96.9c1.2-5.6,2.8-10.6,9.6-12.1c0.1,0,0.1,0,0.2,0V326c-1.1,0-2.1-0.1-3.2-0.2c-0.2-3.4-1.6-7.2-0.3-9.6
				c8.3-16.1,15.3-33.4,26.3-47.3c17.4-22,40.9-32.6,69.5-28c10.9,1.8,14.1,4.1,13.8,13.1h6.4c-0.3-5-0.6-9.6-0.9-14.4
				c0.1-0.1,0.2-0.1,0.3-0.2c-5.6-1.7-11-4.3-16.6-6.1c-3.1-0.6-6.3-1.4-9.5-2c-0.3,0-0.5,0-0.8-0.1c-12.5-0.7-24.3,3.1-34.9,9.5
				c-21.9,13.2-37.9,34.8-53.1,55c-4.6,9.4-8,19.4-10.7,29.6c-4.2,15.7-6.1,32.2-8.3,48.2c-1.8,13-3.1,26.1-4,39.2
				c5.3,14,4.8,30.5,6.8,44.9c1,7.5,2.3,14.9,3.6,22.3c1.8,4.8,3.7,9.5,5.4,14.3c7.2,19.7,10.5,40.3,10.5,61
				c2.1,14,3.3,28.1,3.8,42.3c0.8,21.2,0.4,42.9-3,63.8c-3,18.4-7.3,35.8-5.6,54.5c0.8,8.1,2.2,17.5,1.5,26.4h8.5
				c-0.1,0-0.1-0.6-0.1-1c-1.1-14.4-3-28.6-3.1-43c-0.1-17.8,12.9-28.7,29.8-26.2c5.2,0.8,8.9,2.9,10.5,7.5c1.1,0,2.2,0,3.3,0
				c-0.3-0.2-0.6-0.4-0.7-0.7c-3.9-10.2-12.9-9.3-21.1-12c-8.2-2.7-11.7,4.5-18.1,4.6c0.1-1.3,0-2.2,0.2-3
				c7-33.9,12.6-67.9,7.9-102.7c-1-7-0.2-12.7,6.2-16.8c7.9-5,15-3.8,22.5,1.2c4.9,3.2,8.2,6.8,8,12.3c1.2,0.1,2.5,0,3.8,0
				c0.3-2.2,0.5-4.1,0.8-6.1h12.1c-10.2-3-18.3-6.7-26.3-9.8c13.7-3.8,25.8-0.1,32.8,8c1.1,0.2,2.2,0.4,3.2,0.1c-2-1.5-4-2.9-6-4.3
				c0.7-1.4,1.3-2.7,2-4.1c1.4,0.4,2.8,0.8,4.3,1.2c-0.3-0.7-0.4-1.3-0.5-2c-0.6,0.1-1.2,0.1-1.6,0.1c-10.9-1.5-21.6-3.7-32.5-5.6
				c-0.4-0.9-0.7-1.8-1.1-2.7c1.9-1.2,3.7-2.5,5.5-3.8c-1.1-0.7-2.1-1.4-3.2-1.7c-1.9,4.3-5.4,7.6-10.2,8.8
				c-6.9,1.7-13.8,3.5-22.1,5.7c2.3-7,3.3-14.5,6.8-20.5c14.8-25,35-44.1,61.6-55.3c22.5-9.5,45.2-18,70.1-10
				c5.1,1.6,11.3,2.2,9.9,10.5c-0.7,4.1-2.6,7.5-5.3,9.9c0.6,1,1.2,2,1.7,3c0.9-1.2,1.8-2.5,2.7-3.8c2.3,2.6,3,4.7,2.8,6.5
				c1.1-0.3,2.1-0.7,3.2-0.9c-1.2-2.2-2.1-4.8-2.4-7.3c-0.2-1.6,1-4.2,2.3-5c1.6-0.9,4.7-0.9,6,0c12.3,9.5,20,22.2,23.3,38.2h2.8
				c-0.9-14,1.2-17.4,13.6-19c0-1.2,0-2.5,0.1-3.7c-3.8,0.6-8.2,1.2-13,2c1.8-2.6,3.3-4.9,4.8-7.2c-3.4,1.9-6.8,3.8-11,6.1
				c-10.7-17.7-23.8-33-42.4-39.1c13.5-8.5,28.3-16.4,41.4-26.6c12.2-9.5,25-14.2,39.9-12.6c12.1,1.3,22.8,10,25.6,19h2.3
				c2.9-2,5.1-3.2,7-4.5C658.1,423,653.7,420.7,649.3,418.2z"/>
			<path fill="#7C5C54" d="M483.8,421.7c-2.6-7.8-5.1-15.4-6.5-23.2c-0.8-4.4-1.5-8.6-2-13.6h-3.4c0.7,2,0.7,4.3,0.2,7.5
				c-11.1-3.6-22.4-7.2-33.7-10.9c0.6,1.4,1.2,2.9,2.4,5.5c-1.2,0.2-2.3,0.4-3.5,0.5c0.5,0.7,0.9,1.4,1.3,2.1
				c4.4-1.4,9.3-1.5,14.8,0.2c-4.6,3.9-8.5,7.2-12,10c1,2.3,1.8,4.2,2.8,6.5c0.9-0.1,1.7-0.3,2.6-0.5c1.3-3.8,2.2-7.8,4.6-9.7
				c4.8-3.9,11.6-5.7,16.6-0.4c4.8,5.1,10.5,11.1,11.7,17.5c1.5,8.2,1.3,16.1-0.5,23.4C481.1,432,482.1,426.7,483.8,421.7z"/>
			<path fill="#7C5C54" d="M341.6,450c1.8-5,5.1-6.5,10-6.1c2.1,0.2,4,0.6,5.6,1.3c-0.5-2.3-1-4.6-1.4-6.9c-1.3-0.2-2.6-0.3-3.8-0.3
				c-3.7-0.1-7.5,0.3-11.2,0.7c-8.5,0.9-13.4,0.2-16.9-3.2c-1.3,1.1-2.4,2.3-3.7,3.2c1.5,1,2.9,2.1,4.3,3.2
				c-6.6,4.7-13.1,6.5-19.6,5.3v3.3c2.6-0.2,5.3-0.4,7.9-0.8c0.2,1,0.5,2,0.7,3c-5.2,2.6-10.5,5.1-14.9,7.3c0.8,1.6,1.6,3.1,2.5,5.1
				h4.5c-0.2-4,1.8-6,6.1-8.2c4.3-2.2,7.7-6.2,12-8.4c6.2-3.2,12.8-5.6,19.2-8.3c-2.7,3.1-4.4,7-5.4,10H341.6z"/>
		</g>
		<g id="leaves_1_">
			<path fill="#9F9B00" d="M599.2,482.9c-0.8-2.1-0.9-5-2.4-6.3c-11.1-9.8-9.5-21.5-5.5-33.8c1.7-5.2,3.1-10.4,4.7-15.7
				c12.3,13.8,14.4,34.6,5.3,49.9c-1,1.7-1.6,3.7-2.3,5.6C599,482.7,599.2,482.9,599.2,482.9z"/>
			<path fill="#9F9B00" d="M447.5,136.5c0.4,16.3-9.6,27-25.6,28C420,150.6,428,141.7,447.5,136.5z"/>
			<path fill="#9F9B00" d="M577.6,336.4c-4.3,1.5-8.6,3-13,4.3c-7.8,2.3-14.6,1-19.9-5.7c8.1-10.7,24.2-9.8,32.8,1.6
				C577.4,336.6,577.6,336.4,577.6,336.4z"/>
			<path fill="#9F9B00" d="M437.5,381.6c-20.8,3.2-30-4.8-28.8-25.6c8.6,4.1,15.2,9.9,18.5,18.8
				C429.1,380.1,432.1,382.4,437.5,381.6C437.4,381.6,437.5,381.6,437.5,381.6z"/>
			<path fill="#9F9B00" d="M599,482.7c-0.1,0.1-0.2,0.3-0.3,0.4c0.1-0.1,0.3-0.2,0.4-0.2L599,482.7z"/>
			<path fill="#9F9B00" d="M437.4,381.6C437.5,381.6,437.5,381.6,437.4,381.6C437.5,381.6,437.5,381.6,437.4,381.6L437.4,381.6z"/>
			<path fill="#9F9B00" d="M577.4,336.6c0.1,0.1,0.3,0.1,0.4,0.2c-0.1-0.1-0.2-0.3-0.3-0.4L577.4,336.6z"/>
			<path fill="#9F9B00" d="M521.3,231.7c9.7-2.6,18.2-5.7,20-16.5c1.7-10.1,1.7-20.5,2.6-32c-16.2,8.3-20.7,15.7-21.6,32.8
				c-0.3,5.1-1.9,9.5-4.5,12.7C519.1,229.5,520.2,230.6,521.3,231.7z"/>
			<path fill="#9F9B00" d="M591.2,315.2c2.8-2,4.8-6,5.8-9.5c3.7-13.6,2.8-27.2-1.5-41.3c-6.7,10.5-13,21.3-17.2,32.8
				c-1.9,5.1-1.4,13.6,1.7,17.6c2.9,3.9,4,7.6,4.2,11.5c0.6-0.1,1.1-0.2,1.7-0.4C585.6,321.6,587,318.2,591.2,315.2z"/>
			<path fill="#9F9B00" d="M561.8,486c-0.2-0.3-0.3-0.6-0.5-0.9c-1.1,0.2-2.1,0.6-3.2,0.9c-0.4,4.4-5.7,7.3-5.4,11.7
				c0.5,6.4-0.5,13-0.9,20.6c2.8-1.9,4.4-3,6-4.2C569.1,505.2,569.9,498.6,561.8,486z"/>
			<path fill="#9F9B00" d="M489.7,551.3c17,2.7,43.1-14.7,48.7-31.5c-10.8,1.1-21.8,1.9-32.8,3.4c-11.9,1.7-23.5,4.1-27.3,18.8
				c-0.3,1.3-3.2,2.7-5.5,3c0.1,0.7,0.2,1.3,0.5,2C478.8,548.7,484.2,550.4,489.7,551.3z"/>
			<path fill="#9F9B00" d="M286.5,535c2.3,8.5,8.1,13.8,15.3,16.9c6.6,2.8,13.7,4.3,20.6,6c3.6,0.9,6.7,2.3,9.2,4.3
				c0.4-1.5,1-2.9,1.6-4.2C321.3,542.9,307.8,532,286.5,535z"/>
			<path fill="#9F9B00" d="M241.7,576.6c-6.9-10.4-15.8-12.5-26.9-10.7c-9.6,1.5-19.3,2.3-28.8,3.4c11.7,15.2,28.3,17.1,46.1,14.3
				c4.7-0.7,8.7-0.3,12.3,1.6c0.9-0.7,1.7-1.5,2.7-2.3C245.3,581.3,243.5,579.2,241.7,576.6z"/>
			<path fill="#9F9B00" d="M359.9,491.9c0.6-17.2-5-30.6-20.2-38.3c0.2-1.3,0.6-2.6,0.9-3.6c-1.3,0-2.6,0-4,0
				C332.2,467,344.2,487,359.9,491.9z"/>
			<path fill="#9F9B00" d="M292.2,441.7c-16-11.3-32.7-12.4-45.2-2.8c12.4,14.8,28.6,19.2,46.5,13.4c3.4-1.1,6.9-1.5,10.5-1.9
				c0-1.1,0-2.2,0-3.3C300.1,446.3,296.2,444.5,292.2,441.7z"/>
			<path fill="#9F9B00" d="M118.9,479.3c-5.2,7.7-11.4,15-15.2,23.4c-7.1,15.3-4,31.6,7.3,42.6c3.9-5.9,8.4-11.3,11.3-17.4
				c6.8-14.3,6.5-29.7,4.8-45.1c-0.3-2.4-0.5-5.3,0.2-7.3c-1.7-0.4-3.4-0.7-5.1-0.9C121.1,476.1,120,477.7,118.9,479.3z"/>
			<path fill="#9F9B00" d="M129.5,431.2c-15.4-14.2-31.6-12.1-48.7-4.8c9.7,15,30.3,20.7,44.9,13.6c2.8-1.4,5.9-2.2,9.3-2.9
				c0-1.2,0-2.4,0-3.7C132.8,433.1,130.8,432.4,129.5,431.2z"/>
			<path fill="#9F9B00" d="M103.1,366.4c-10.3,4.8-18.8,11.9-20.8,26c17.7-2.5,30.2-11.8,40.6-24.5c3-3.7,6.8-6.5,11.1-8.3
				c-1.7-1.1-3.5-2.2-5.3-3.2C120,359.6,111.4,362.6,103.1,366.4z"/>
			<path fill="#9F9B00" d="M316,353.9c2-5.6,6-10.3,12.5-14c13.8-7.9,19-22,15-37.4c-16.6,5.5-25.8,18.1-26.6,34.9
				c-0.2,4.8-1.6,9.5-3,15.1C314.8,352.8,315.5,353.3,316,353.9z"/>
			<path fill="#9F9B00" d="M409.2,335.6c7.4,10.1,16.9,17.7,29.7,21.7c-1.9-8.5-4.2-16.8-8.8-23.3c-8.8-12.3-21.9-7.7-34.1-7.9
				c0,1,0,2,0,2.9C402.4,327.6,405.6,330.7,409.2,335.6z"/>
			<path fill="#9F9B00" d="M363.3,266.6c-4.8,17.4-5.5,33.1,5.9,46.4c1.8,2.1,3.1,4.1,4,6.2c1.9-1.1,3.7-2.3,5.3-4
				C378.8,297.9,381,280.1,363.3,266.6z"/>
			<path fill="#9F9B00" d="M202.4,272.9c20.8,6.2,47.4-3.1,58.4-21.7c-14.3-3.7-29.1-6.1-42.4,0c-10.1,4.6-19.2,11.6-28.4,18.2
				c0,1.6,0,3.2,0,4.8C193.8,272.5,198.7,271.8,202.4,272.9z"/>
			<path fill="#9F9B00" d="M504.2,431.2c18.6,4,34-3.3,43-20.3c-11,0.6-22.1,1.1-33.3,1.7c-8.2,0.5-14.6,4.1-19.5,11.3
				c-2.2,3.2-5.6,5.5-7.7,7.2c0.1,0.8,0.2,1.6,0.5,2.3C491.5,430.2,496.9,429.6,504.2,431.2z"/>
			<path fill="#9F9B00" d="M472.5,360.2c-0.8-19.6-10.5-30.9-27.6-32.8c2.3,11.3,5,23.1,7,35.1c1.2,7.3,4.6,12.4,11,15.7
				c4.7,2.4,7.1,4.8,8.1,6.8c1.1,0,2.2,0,3.4,0C473.3,377,472.8,368.5,472.5,360.2z"/>
			<g>
				<path fill="#CCB400" d="M654.3,297.5c-14.6,20.9-29.3,36-54.5,27.6C608.6,299,630.4,298.7,654.3,297.5z"/>
				<path fill="#CCB400" d="M492,215.5c3.7-0.9,7.7-5.5,9.4-9.5c7.5-17.1,2.5-34.1-1.3-51.3c-7.3,10.7-14.6,21.1-19.2,32.6
					c-2.7,6.8-2.5,15.5-1.4,23c0.6,4.1,0.5,8.1-0.6,11.5c1.1,0.5,2.3,0.9,3.4,1.5C484.3,219.6,486.8,216.7,492,215.5z"/>
				<path fill="#CCB400" d="M650.1,394c22.3-13.8,21.3-35.2,20.3-57.8c-12,5.7-27.2,24.1-29,35.4c-0.7,4.5-0.6,9.5,0.5,13.9
					c1.1,4.1,1.1,7.8,0.2,10.9c0.8,0.9,1.6,1.7,2.4,2.6C646.2,397.1,648,395.3,650.1,394z"/>
				<path fill="#CCB400" d="M470,554.2c2.3,2.6,4,5.7,5.1,9.2c4.7,15.3,14,22.3,30.2,22.2c-2.9-12.2-9.6-20.1-21.1-24.7
					c-3.9-1.6-7.5-4.1-11-6.7C472.2,554.6,471.1,554.4,470,554.2z"/>
				<path fill="#CCB400" d="M438.7,679.4c0.5,1.5,0.8,3.3,0.8,5.3c0,15.4,11.7,26.5,26.9,26.6c0.2-18.6-4.8-25.8-21.4-30.9
					c-0.9-0.3-2.2-0.6-3-1C441,679.4,439.9,679.4,438.7,679.4z"/>
				<path fill="#CCB400" d="M224.9,602.1c-21.6,0.2-40,13.7-47.5,35.6c6-0.9,11.6-1.7,17.1-2.7c16.4-3,29.9-9.6,39.7-25
					c2.2-3.5,5-6.4,8.3-9c-0.9-0.5-1.8-0.9-2.8-1.4C236.1,601.7,232.1,602.1,224.9,602.1z"/>
				<path fill="#CCB400" d="M316.8,422.9c-4-12.9-11.9-22.7-23.8-30.7c-1.4,12.5-0.7,23.3,6.7,31c5.8,6,12.8,10.6,19.6,15.4
					c1.3-1,2.4-2.1,3.7-3.2C320.5,432.9,318.7,428.9,316.8,422.9z"/>
				<path fill="#CCB400" d="M142.3,337.9c-1.2-3.3-1.7-7-1.5-11.1c0.2-5,0.5-10.1-0.1-15c-1.5-13-5.1-25.1-16.3-33.6
					c-9.1,18.7-6.4,39.3,5.7,52.6c2.3,2.5,4.4,5.2,6.5,7.9C138.5,338.7,140.4,338.4,142.3,337.9z"/>
				<path fill="#CCB400" d="M289.9,321.6c-9.2-14.7-23.3-20.5-40.1-23.2c3.5,7.8,7,14.2,9.4,21.1c4.2,12.1,11.9,18,24.7,17.7
					c3.3-0.1,7.4,0.9,10.3,2.8c0.8-2.2,1.8-4.4,2.8-6.7C294.6,329.2,292.2,325.4,289.9,321.6z"/>
				<path fill="#CCB400" d="M187.8,264.4c0.9-1.3,1.8-2.7,2.6-4c3.7-5.8,9-11.3,10.4-17.7c2.8-12.9,0.4-25.8-4.9-38
					c-0.8-1.9-2.5-3.4-4.5-6c-11.8,20.4-21.8,39.7-11.7,63.3c0.3,0.7,0.4,1.4,0.5,2.3C182.8,264,185.4,263.7,187.8,264.4z"/>
				<path fill="#CCB400" d="M313,195c10.2-13.9,6.5-43.2-6.6-55.5c-7.3,13.1-12.5,26.8-11.6,42c0.3,5,2.2,10.5,4.8,14.8
					c2.3,3.9,4.9,7.5,7.6,11.2c1-0.4,2-0.8,3.1-1.2C308.6,202.4,310,199.2,313,195z"/>
				<path fill="#CCB400" d="M101.4,459.8c-8.1-2.2-17.1,1.4-21.8,10.5c9.4,8.2,19.4,7.7,30.8-0.1c2.6-1.8,5.6-3.2,8.6-4.5
					c0-1.8,0-3.5,0-5.3C113.9,461.7,108.2,461.6,101.4,459.8z"/>
				<path fill="#CCB400" d="M342.9,566.9c0.8-2.4,1.9-4.4,3.3-5.2c13.6-8.3,18.1-21,19-35.6c0.5-8.6-0.7-17.4-1.1-26.1
					c-1.2,0-2.3-0.1-3.5-0.1c-16.9,16.7-23.1,37.5-22.4,61.8C339.9,563.5,341.3,565.5,342.9,566.9z"/>
				<path fill="#CCB400" d="M607,488.2c-0.1,1.1-0.2,2.3-0.1,3.5c0.5-0.1,1-0.1,1.6-0.2c3.5,13.9,12.6,21.9,26.6,23.5
					c12.3,1.4,24.6,2.1,38.1-1C635.9,484.8,645.9,482.1,607,488.2z"/>
			</g>
			<g>
				<path fill="#B18300" d="M455.4,271.4c-6.6,35.8-38,36-58.5,47.2c2.2-4.7,5-11.4,8.4-17.8C415.7,281.3,433.6,274.7,455.4,271.4z"
					/>
				<path fill="#B18300" d="M490.5,630.7c-7.6,9.4-13.3,19.8-21.9,25.9c-8.1,5.7-19.4,6.7-29.9,10c2.3-3.8,4.8-6.6,5.7-9.8
					C450.6,634.8,466.7,625.1,490.5,630.7z"/>
				<path fill="#B18300" d="M370.7,166.9c-4.5-18.7-16.7-30.6-35.5-33.1c-2.6,20.3,9.6,36.7,29,37.8c4.1,0.2,6.4,1.8,7.7,4
					c0.3-0.7,0.6-1.4,0.9-2C372,171.4,371.2,169.2,370.7,166.9z"/>
				<path fill="#B18300" d="M668.6,416.3c5.9-1.4,11.1-5.6,18.4-9.5c-11.2-4.9-19.5-4.6-26.9,1.4c-4.1,3.3-7.2,5.2-10.4,5.6
					c0.7,1.3,1.4,2.6,2.2,3.8C657.9,417,663.5,417.6,668.6,416.3z"/>
				<path fill="#B18300" d="M542.5,483.9c-7.1,0.4-14.3,0.9-21.3,2.3c-13.8,2.9-27.2,18.1-27.1,28.5c25.3,1,43.9-11.7,58.5-31.4
					c-0.6-1-1.2-2-1.7-3C548.5,482.4,545.6,483.7,542.5,483.9z"/>
				<path fill="#B18300" d="M273.9,561.2c-0.6-16.2-8.4-29.2-20.6-39.2c-2.9-2.4-6.7-3.5-11.6-6c2.5,12.7,3.4,23.7,7.1,33.7
					c2.2,6,7.9,11.3,13.3,15.1c3.5,2.5,7.4,4.5,11.4,6.4c1.3-0.3,2.5-0.9,3.7-1.6C275.2,567.8,274.1,565.2,273.9,561.2z"/>
				<path fill="#B18300" d="M238.5,432.8c8.8-10.6,9.5-17.9,3.1-30.1c-1.9-3.6-2.5-6.7-2-9.7c-1.1,0-2.2,0-3.3,0
					C234,407,225.2,420.6,238.5,432.8z"/>
				<path fill="#B18300" d="M167.6,413.5c-5.1-0.5-10.3-3-14.1-7c-12.1-12.5-26.2-20.3-46.9-18.4c9.2,10.6,15.3,22.5,24.9,27.5
					c8.4,4.4,19.7,3.2,30.1,3.6C163.9,417.9,165.8,415.8,167.6,413.5z"/>
				<path fill="#B18300" d="M132.2,348.9c-2.3-1.9-4.3-4.2-6.3-6.7c-6.7-8.6-14.7-14.2-26.1-14.3c2.2,15.6,8.9,21.5,22.4,21.4
					c2.7,0,5.4,0.8,8.1,1.6C130.9,350.3,131.6,349.6,132.2,348.9z"/>
				<path fill="#B18300" d="M338.7,373.6c14.1-5,20.6-17.4,25.4-31.6c-10.3,4.5-20.4,9.4-28.9,16.2c-7.1,5.7-6.1,13.8-5.9,21.7
					c0.8,0,1.7,0.2,2.6,0.4C332.5,377.5,334.6,375.1,338.7,373.6z"/>
				<path fill="#B18300" d="M287,214.5c-12.8-18.5-33.8-25-53.4-15.9c4.2,5,8.5,9.8,12.3,14.8c11.4,15,26,19.2,43.7,14.7
					c3.6-0.9,7.5-1.1,11.3-1.2c0.1-0.7,0.3-1.4,0.5-2.1C296.2,224.7,291.7,221.4,287,214.5z"/>
				<path fill="#B18300" d="M392.8,408.8c13.8,1.3,25.1-1.9,34.4-12c3.1-3.4,6.6-5.8,10.5-7.1c-0.4-0.7-0.9-1.4-1.3-2.1
					C419.6,389.2,399.5,384,392.8,408.8z"/>
				<path fill="#B18300" d="M452.6,527.5c15.3-6.2,27-21.9,26.5-39.1c-11.3,7.1-22.2,12.9-31.8,20.5c-3.5,2.8-5.3,9.5-5.5,14.6
					c-0.1,2.8-0.7,5.5-1.8,7.9c1.1,0.4,2.1,1,3.2,1.7C446.2,530.9,449.3,528.9,452.6,527.5z"/>
				<path fill="#B18300" d="M610.8,359.5c11.8-4.1,20.2-12.5,25.3-25c-8.4,1.8-17.8,3-23.8,8.2c-5.2,4.5-7.9,12.2-11.3,19.1
					c0.8,1,1.7,1.9,2.5,2.8C605.1,362.4,607.4,360.7,610.8,359.5z"/>
			</g>
			<path fill="#9F9B00" d="M577.9,336.8c0,0.1,0.1,0.1,0.1,0.2c0,0,0-0.1,0-0.1C578,336.8,577.9,336.8,577.9,336.8z"/>
		</g>
		<g id="apples_1_">
			<path fill="#CC2700" d="M430.3,184.2c-9-2.5-16.9-1.5-22,7.1c-5.9,10.1-1.5,27.3,8.5,34c9.8,6.6,29.6,3.9,35.5-5.1
				c5.8-8.7,6.4-18.4,2.2-27.8c-4.1-9.4-12.2-11.3-21.7-8.9c-0.2-0.7-0.5-1.4-0.7-2.1c0.1-0.1,0.2-0.1,0.3-0.2
				c-0.6,0-1.2,0.1-1.8,0.1C430.6,182.1,430.5,183.1,430.3,184.2z"/>
			<path fill="#CC2700" d="M550.7,356.8c-11-0.1-18.1,4.5-19.7,13.1c-2.3,12.4,4.3,29.3,13.3,30.8c7.7,1.3,16.1,1.1,23.6-0.8
				c9.6-2.4,15-16.6,12.7-29c-1.8-9.7-6.1-12.6-19.2-12.6c-0.8,0-1.5-0.8-4.1-2c0.3-0.3,0.6-0.2,0.9-1.2c-1.2,0-2.5,0-3.7,0
				C553.2,356,551.9,356.8,550.7,356.8z"/>
			<path fill="#CC2700" d="M446,566.8c-2.8-0.3-5.6-0.9-8.4-1c-8.9-0.4-16.6,5.4-18.8,13.8c-2.7,10.8,2.9,27.2,11.4,33.5
				c6.1,4.5,28.6,5.1,34.8,1c9.6-6.3,15.6-23.6,11.9-34.6c-4-11.7-9.7-14.5-26.9-12.3c0.2-1.6,0.4-3.3,0.6-5c-1.3,0-2.5-0.1-3.8-0.2
				C446.8,563.6,446.5,565.1,446,566.8z"/>
			<path fill="#CC2700" d="M288.8,603.5c-3.8-2.8-9.6-2.8-14.5-3.7c-2-0.4-4.3,0.2-6.4,0.4c0-0.7,0-1.1,0-2.1c-1.3,0-2.6,0-3.9,0
				c-0.1,1-0.2,2.4-0.2,3.5c-14.9,1.6-20.7,6.5-21.3,17.5c-1,20.2,23.5,37,41.1,28.2C294.3,641.8,298.4,610.5,288.8,603.5z"/>
			<path fill="#CC2700" d="M444.4,409c-3.1-0.4-4.4-0.7-5.8-0.8c-15.1-1.2-23.4,8.8-19.8,23.8c3.9,16.4,9.4,21.1,26.9,23
				c14.1,1.5,25.5-10,26-26.3c0.4-13.8-6.6-19.8-22.5-19.4c-0.8,0-1.6-0.4-4.1-1.2c0.3-0.7,0.6-1.4,0.8-2.1
				c-0.9,0.2-1.7,0.3-2.6,0.5C443.7,407.2,444,408.1,444.4,409z"/>
			<path fill="#D25F00" d="M302.5,247.3c-10.7-4.3-21.1-3.8-29,4.7c-7.9,8.5-7.6,19.3-3.8,29.9c3.6,10.1,9.4,20.1,19.5,22
				c10.8,2.1,22.9,4.1,33.7-1.8c9.3-5,15.8-12.7,18.4-23.4c2.5-10.3,1.5-20.5-5.7-28.2c-7.5-7.9-17-7.3-26.5-3.3
				c-0.5,0.2-1.1-0.1-3.7-0.1c0.4-1.6,0.7-3.1,1-5.1c-1.2,0-2.4,0-3.6,0C303.4,243,303.3,244.8,302.5,247.3z"/>
			<path fill="#D25F00" d="M591.2,514.6c-3-0.3-4.9-1.2-6.8-0.9c-6.9,1-14.9,0.3-20.5,3.7c-14.2,8.8-17.9,24.3-12.2,43.9
				c5.1,17.9,17.8,29.5,32.2,27.7c3.9-0.5,8,0.1,11.9,0.8c8.9,1.8,16.6-1.4,21.3-8.5c5.6-8.6,11.5-18.1,13.5-28
				c5.4-26.3-9.6-42.2-35.6-39.8c-0.5,0-1-0.1-1.5-0.3c-0.1-0.9-0.1-2.4-0.2-2.4c-0.9,0-1.9,0-2.8,0
				C590.8,512,591,513.3,591.2,514.6z"/>
			<path fill="#D25F00" d="M302.6,470.2c-4.3-0.6-6.1-0.6-7.7-1c-10.8-2.2-19,2.4-22,13.1c-3.8,13.7-0.9,26.6,9.3,35.6
				c9.8,8.6,22.9,5.3,34.8,5.2c0.2,0,0.5-0.3,0.7-0.5c14.7-7.1,22-25.6,15.1-40.8c-2-4.4-7-8.2-11.6-10.2c-4.4-1.9-10-1.2-15-1.5
				c-1-1.9-1.5-3.2-1.6-5.2c-1.5,0-3,0-4.5,0C300.9,467,301.7,468.3,302.6,470.2z"/>
			<g id="apple_2_" class="clickable">
				<title>Apple</title>
				<path fill="#CC2700" d="M501.6,259.7c-23.4-3.6-36.6,4.5-40.6,25.1c-5.8,29.8,12.5,54.3,41.1,56.7c15.4,1.3,27.8-2.7,35.4-17
					c3.8-7.2,6.9-15,8.8-22.9c3-12.3,1.3-24.2-7.5-33.9c-8.1-9-18.5-10.4-30-7.7c-0.1-2.1-0.3-4.9-0.4-5.9c-2.1,0-4.2,0-6.4,0
					C502,255,501.9,257.4,501.6,259.7z"/>
				<path opacity="0.46" fill="#DD5651" d="M542.4,288.7c0,10.4-6.8,34.7-15.2,34.7S512,299.1,512,288.7c0-10.4,6.8-18.8,15.2-18.8
					S542.4,278.2,542.4,288.7z"/>
				<path opacity="0.46" fill="#DD6866" d="M539.9,288.7c0,7.3-4.8,21.8-10.7,21.8s-10.7-14.6-10.7-21.8s4.8-13.2,10.7-13.2
					S539.9,281.4,539.9,288.7z"/>
			</g>
			<g id="apple_5_" class="clickable">
				<title>Apple</title>
				<path fill="#CC2700" d="M223.2,307.5c-19.3-3.7-29.8,6.9-27.1,26.8c2.5,18.4,11.9,25.3,34.6,25.3c11.4,0,19.2-5.8,23.2-17.3
					c4.4-12.7,1.8-25.9-6.8-32.3c-3.5-2.6-7.1-5.2-10.8-7.7c-4,1.4-8.1,2.1-12.5,2.8C223.7,305.8,223.5,306.6,223.2,307.5z"/>
				<path opacity="0.46" fill="#DD5651" d="M251.1,326.4c0,5.6-3.2,18.5-7.2,18.5c-4,0-7.2-13-7.2-18.5s3.2-10.1,7.2-10.1
					C247.9,316.4,251.1,320.9,251.1,326.4z"/>
				<path opacity="0.46" fill="#DD6866" d="M249.9,326.4c0,3.9-2.2,11.7-5,11.7c-2.8,0-5-7.8-5-11.7s2.2-7,5-7
					C247.7,319.4,249.9,322.5,249.9,326.4z"/>
			</g>
			<g id="apple_3_" class="clickable">
				<title>Apple</title>
				<path fill="#CC2700" d="M652.7,431.8c-9.4-1.6-18-0.6-23.3,8.7c-4.8,8.5-1.7,23.6,6.1,33c7.8,9.4,19.2,10.3,29.2,7
					c11.3-3.8,19.1-22.1,16.4-34.9c-2.1-9.9-8.8-13.5-24.5-13.5c-0.2,0-0.5-0.4-2.4-1.6c0.1-0.1,0.2-0.4,0.4-0.4c-0.8,0-1.6,0-2.3,0
					C652.4,431,652.6,431.2,652.7,431.8z"/>
				<path opacity="0.46" fill="#DD5651" d="M675.3,451.4c0,5.7-3.3,18.8-7.3,18.8s-7.3-13.2-7.3-18.8c0-5.7,3.3-10.2,7.3-10.2
					S675.3,445.7,675.3,451.4z"/>
				<path opacity="0.46" fill="#DD6866" d="M673.1,453.2c0,4.1-2.4,12.2-5.3,12.2c-2.9,0-5.3-8.2-5.3-12.2c0-4.1,2.4-7.4,5.3-7.4
					C670.8,445.8,673.1,449.1,673.1,453.2z"/>
			</g>
			<g id="apple_4_" class="clickable">
				<title>Apple</title>
				<path fill="#CC2700" d="M182.6,435.1c0.9,1.3,1.9,2.7,3,4.3c-17.7-1.4-25.3,0.8-32.9,8.7c-20.6,21.6-6,74.7,22.6,82.1
					c2.7,0.7,5.6,0.3,8.5,0.3c2.5,0,5-0.4,7.5-0.2c21.3,1.7,37.4-8.7,44-29.8c2.6-8.2,4-17.1,4.1-25.8c0.2-25.9-18.2-40.8-42.8-35.3
					c-1.6,0.4-3.2,0.7-5.6,1.2c-0.3-1.7-0.6-3.4-0.8-5C187.6,435.3,185.1,435,182.6,435.1z"/>
				<path opacity="0.46" fill="#DD5651" d="M182.4,472.7c0,10.4-6.8,34.7-15.2,34.7S152,483.1,152,472.7c0-10.4,6.8-18.8,15.2-18.8
					S182.4,462.2,182.4,472.7z"/>
				<path opacity="0.46" fill="#DD6866" d="M179.9,472.7c0,7.3-4.8,21.8-10.7,21.8s-10.7-14.6-10.7-21.8s4.8-13.2,10.7-13.2
					S179.9,465.4,179.9,472.7z"/>
			</g>
		</g>
	</g>
</g>
<g id="forground">
	<g>
		<path fill="#409D61" d="M466.8,716.8c-2.2,9.4-3.3,20.8-8.9,29c-3.2,4.6-7.2,6.5-11.6,7.1c0.4-1.1,0.8-2.1,1.1-3.1
			c2.7-7.9,2.5-16.5,1.6-24.7c-2.1-17.7-5.1-35.7-8.6-53.3c-0.3-1.3-1.5-0.8-1.5,0.3c0.3,15,1.9,30,2.5,45
			c0.3,7.4-0.1,15.1-2.7,22.1c-1.1,3-2.6,6-4.6,8.5c-0.6,0.8-1.3,1.5-2,2.2c-1-1.2-2-2.4-2.7-3.9c-1.9-3.9-2.7-8.2-3.7-12.4
			c-2.5-10.6-5.6-20.9-8.3-31.3c0,0.1,0.1,0.1,0.1,0.1c0.1,0,0.2,0,0.2-0.1c0.2-0.1,0.3-0.5,0.2-0.7c-0.1-0.8-0.2-1-0.9-1.5
			c-0.3-0.2-0.6-0.2-1,0c-3,2.2-0.7,9.1-0.4,12.1c0.7,6.8,1.7,13.5,2.7,20.3c0.8,5.4,1.4,13.9,3.7,20.9c-1.2-0.3-2.5-0.7-3.8-1.2
			c-4.8-2.1-9.9-6.1-12-11.1c-0.8-1.9-2.3,0.2-1.8,1.5c4.1,11.8,14.6,23.3,28,22.7c10.7,3.8,22.3-2.7,28.2-11.9
			c6.8-10.6,6.4-24.5,7.2-36.6C468,716.1,467,715.8,466.8,716.8z"/>
		<path fill="#72BA5B" d="M473.3,737.4c-3.9,5.6-8.2,12.2-14.8,14.9c-2.3,1-4.8,1.4-7.3,1.6c0.2-0.3,0.5-0.7,0.7-1
			c3.7-5.5,6.3-11.6,7.6-18.1c1.5-7,1.1-14.1,0.3-21.2c-0.7-6.9-1.2-14.5-3.5-21.1c-0.3-0.7-0.9-0.4-1,0.2
			c-2.6,11.8,0.5,24.3-2.5,36.1c-1.5,5.8-4.2,11.1-8.1,15.7c-2.5,3-6.3,5.2-8.7,8.3c-2.7-0.3-5.3-0.8-7.9-2.5
			c-4.3-2.8-7.5-7.1-10.5-11.2c-7.7-10.5-14-22.2-19.8-33.8c-0.6-1.2-1.5,0.2-1.2,1c5,14.1,11.5,27.6,18.8,40.6
			c4.7,8.4,14.9,22.5,26.4,18.3c2.9-0.7,5.7-1.7,8.5-2.6c4.1-1.3,8.1-2.6,11.6-5.3c6.1-4.9,9.3-12.2,12.2-19.2
			C474.2,737.8,473.8,736.7,473.3,737.4z"/>
		<path fill="#69A668" d="M461.4,705.1c-2.7,2.3-2.9,5.1-3,8.5c-0.3,6.2-0.9,12.2-2.8,18.2c-3.2,10-9.2,18-16.7,24.9
			c-3.5-6-3.8-15.2-4.9-21.2c-1.7-10-3-20.3-5.7-30.1c-0.2-0.7-0.9-0.5-0.9,0.2c-0.2,12.9,1.7,25.7,2.5,38.5
			c0.4,6.6,0.4,13.2,3,18.9c-1,3.7,1.7,8.8,5.2,6.8c3.3,2.5,6.3-1.8,6-5.6c5.9-6.6,10.1-14.6,13.2-23.1c1.8-5,3.1-10.1,3.6-15.4
			c0.3-2.6,0.4-5.1,0.4-7.7c0-3.6-1.6-8.7,0.7-11.8C462.2,705.8,462,704.6,461.4,705.1z"/>
	</g>
	<g>
		<path fill="#409D61" d="M372.6,700.1c2.5,8.7,3.8,19.3,10.1,26.8c3.6,4.3,8.2,6,13.2,6.6c-0.5-1-0.9-1.9-1.3-2.8
			c-3-7.3-2.9-15.3-1.8-22.8c2.4-16.4,5.8-33,9.9-49.2c0.3-1.2,1.8-0.8,1.7,0.3c-0.3,13.9-2.2,27.7-2.8,41.6
			c-0.3,6.8,0.1,14,3.1,20.4c1.3,2.8,3,5.5,5.2,7.8c0.7,0.7,1.5,1.4,2.3,2.1c1.2-1.1,2.3-2.2,3.1-3.6c2.2-3.6,3.1-7.6,4.2-11.5
			c2.8-9.8,6.4-19.3,9.5-29c0,0.1-0.1,0.1-0.1,0.1c-0.1,0-0.2,0-0.3-0.1c-0.3-0.1-0.3-0.4-0.3-0.6c0.1-0.7,0.2-0.9,1-1.3
			c0.4-0.2,0.7-0.2,1.1,0c3.4,2,0.8,8.4,0.4,11.1c-0.8,6.3-2,12.5-3.1,18.8c-0.9,5-1.5,12.9-4.2,19.3c1.4-0.3,2.8-0.6,4.3-1.1
			c5.5-1.9,11.3-5.7,13.8-10.2c0.9-1.7,2.6,0.2,2.1,1.4c-4.7,10.9-16.7,21.5-32,21c-12.2,3.6-25.5-2.5-32.3-11
			c-7.8-9.8-7.3-22.7-8.2-33.8C371.2,699.5,372.3,699.2,372.6,700.1z"/>
		<path fill="#72BA5B" d="M365.1,719.2c4.5,5.2,9.4,11.3,16.9,13.8c2.7,0.9,5.5,1.3,8.3,1.5c-0.3-0.3-0.5-0.6-0.8-0.9
			c-4.2-5.1-7.2-10.7-8.7-16.7c-1.7-6.5-1.3-13.1-0.4-19.6c0.9-6.4,1.4-13.4,4-19.5c0.3-0.7,1.1-0.3,1.2,0.2
			c3,10.9-0.6,22.5,2.8,33.4c1.7,5.4,4.8,10.3,9.2,14.5c2.9,2.8,7.2,4.8,10,7.7c3.1-0.3,6-0.7,9.1-2.3c5-2.6,8.5-6.6,12-10.4
			c8.8-9.7,16-20.5,22.7-31.3c0.7-1.1,1.7,0.1,1.4,1c-5.7,13-13.1,25.5-21.5,37.6c-5.4,7.8-17.1,20.8-30.2,16.9
			c-3.3-0.6-6.5-1.6-9.7-2.4c-4.7-1.2-9.3-2.4-13.2-4.9c-7-4.5-10.6-11.2-13.9-17.8C364,719.6,364.5,718.6,365.1,719.2z"/>
		<path fill="#69A668" d="M378.7,689.3c3.1,2.1,3.3,4.7,3.5,7.8c0.4,5.8,1,11.3,3.2,16.8c3.6,9.3,10.5,16.7,19.2,23.1
			c4-5.5,4.4-14.1,5.6-19.6c2-9.3,3.4-18.8,6.5-27.9c0.2-0.7,1-0.5,1,0.2c0.2,11.9-2,23.8-2.9,35.6c-0.5,6.1-0.4,12.2-3.4,17.5
			c1.2,3.5-2,8.2-5.9,6.3c-3.8,2.3-7.2-1.7-6.8-5.2c-6.8-6.1-11.5-13.5-15.1-21.3c-2.1-4.6-3.5-9.4-4.2-14.2
			c-0.3-2.4-0.5-4.7-0.5-7.1c0-3.4,1.9-8.1-0.8-10.9C377.8,690,378.1,688.9,378.7,689.3z"/>
	</g>
	<g>
		<path fill="#409D61" d="M319.5,702.9c3.1,13.8,4.7,30.4,12.7,42.3c4.5,6.7,10.2,9.4,16.5,10.3c-0.6-1.5-1.2-3.1-1.6-4.5
			c-3.8-11.5-3.6-24.1-2.2-36c3-25.9,7.2-52.1,12.4-77.6c0.4-1.8,2.2-1.2,2.2,0.5c-0.4,21.9-2.7,43.7-3.5,65.6
			c-0.4,10.7,0.1,22,3.9,32.2c1.6,4.3,3.7,8.7,6.5,12.4c0.9,1.2,1.9,2.2,2.9,3.2c1.5-1.7,2.8-3.5,3.9-5.6c2.8-5.6,3.9-12,5.3-18.1
			c3.5-15.4,8-30.4,11.8-45.7c0,0.1-0.1,0.2-0.2,0.2c-0.1,0-0.2-0.1-0.3-0.1c-0.4-0.1-0.4-0.7-0.4-1c0.2-1.1,0.3-1.5,1.2-2.1
			c0.5-0.3,0.9-0.4,1.4,0c4.2,3.2,1,13.2,0.6,17.6c-1,9.9-2.4,19.7-3.9,29.6c-1.2,7.9-1.9,20.3-5.3,30.4c1.8-0.4,3.5-1,5.4-1.8
			c6.9-3.1,14.2-8.9,17.2-16.1c1.1-2.7,3.2,0.3,2.6,2.2c-5.9,17.2-20.9,34-40,33.1c-15.3,5.6-31.8-4-40.4-17.3
			c-9.8-15.4-9.2-35.8-10.2-53.4C317.8,702,319.1,701.6,319.5,702.9z"/>
		<path fill="#72BA5B" d="M310.1,733.1c5.6,8.2,11.8,17.7,21.1,21.8c3.3,1.4,6.8,2,10.4,2.3c-0.3-0.5-0.7-1-1-1.5
			c-5.2-8-9-16.9-10.9-26.3c-2.1-10.2-1.6-20.6-0.5-30.9c1.1-10.1,1.7-21.1,5-30.7c0.4-1,1.3-0.5,1.5,0.3
			c3.8,17.2-0.8,35.5,3.6,52.6c2.1,8.5,6,16.2,11.5,22.9c3.6,4.4,9.1,7.6,12.5,12.1c3.8-0.5,7.5-1.2,11.3-3.7
			c6.2-4.1,10.7-10.4,15-16.4c11-15.3,20-32.4,28.4-49.3c0.9-1.8,2.1,0.2,1.7,1.5c-7.2,20.6-16.4,40.2-26.9,59.2
			c-6.7,12.2-21.3,32.8-37.8,26.7c-4.1-1-8.2-2.5-12.1-3.8c-5.9-1.9-11.7-3.8-16.5-7.7c-8.8-7.1-13.3-17.7-17.4-28
			C308.8,733.6,309.4,732.1,310.1,733.1z"/>
		<path fill="#69A668" d="M327.2,685.9c3.8,3.3,4.1,7.5,4.4,12.3c0.5,9.1,1.2,17.8,4,26.5c4.5,14.6,13.2,26.3,24,36.4
			c5-8.7,5.5-22.2,7-30.9c2.5-14.6,4.2-29.6,8.1-43.9c0.3-1.1,1.3-0.8,1.3,0.3c0.3,18.7-2.5,37.5-3.6,56.2
			c-0.6,9.6-0.5,19.3-4.2,27.6c1.5,5.5-2.5,12.9-7.4,9.9c-4.7,3.7-9-2.6-8.6-8.2c-8.5-9.7-14.4-21.2-18.9-33.6
			c-2.6-7.2-4.4-14.8-5.2-22.4c-0.4-3.7-0.6-7.5-0.6-11.2c0-5.3,2.4-12.7-1-17.2C325.9,687,326.4,685.2,327.2,685.9z"/>
	</g>
	<g>
		<path fill="#72BA5B" d="M417,738.7L417,738.7L417,738.7z"/>
		<path fill="#72BA5B" d="M418,738.1v0.1V738.1z"/>
		<path fill="#72BA5B" d="M430.3,719.5c-1.7,7-3.6,14.1-7.1,20.5c-1.5,2.7-3.2,5.2-5.2,7.5c-0.4,0.4-0.8,0.8-1.2,1.2
			c-2.2-7-4.3-14.7-3.3-21.8c1-7.2,3.4-14.5,1.6-21.8c-0.1-0.6-0.8-0.4-0.7,0.2c0.6,8.6-3,16.2-4.6,24.5c-1.5,8,0.2,16,0.3,24
			c0,1.5,0.5,2.6,1.3,3.3c0.4,1.9,1.9,3.6,4,2.9c6.3-2,10.8-11,12.6-16.9c2.4-7.6,2.5-15.6,2.9-23.5
			C430.8,719.2,430.4,719.1,430.3,719.5z"/>
		<path fill="#69A668" d="M420.4,729.8c-0.7,5.4-2.2,10.6-4.6,15.5c-1.4,2.8-2.9,4.8-5.1,6.9c-0.5,0.5-0.9,1-1.3,1.4
			c-6.6-6.4-6.8-14.9-6.5-24c0.2-4.8,0.4-9.6,0.4-14.4c0.1-4.5,0.5-9.3-0.2-13.8c-0.1-0.4-0.5-0.5-0.6-0.1c-1.7,5.1-2,11-2.7,16.4
			c-0.8,5.9-1.6,11.8-2,17.8c-0.6,8.9,1,20.8,9.5,25.9c0.8,0.5,1.4,0.6,2,0.5c0.7,0.2,1.4,0.2,2.2-0.3c2.4-1.6,3.2-3.7,4-6.4
			c0.9-3.1,2.2-6.1,3.1-9.3c1.6-5.2,2.4-10.5,2.6-16C421.2,729.4,420.5,729.2,420.4,729.8z"/>
		<g>
			<path fill="#409D61" d="M435.5,736.9c-2.9,6-8,11.4-13.9,14.5c-2.8,1.5-5.8,2.6-8.9,3.2c0,0-0.1,0-0.1,0
				c0.3-3.5,0.1-7.1-0.4-10.6c-0.6-4.6-1.7-9.1-2.8-13.5c-0.6-2.5-1.2-4.9-1.7-7.4c-0.2-1.1-0.4-2.2-0.7-3.3c0-0.2-0.3-2.8-0.2-2.7
				c0.3,0.3,0.4-0.4,0.3-0.6c-0.6-1.1-1.1-0.4-1.6,0.3c-1,1.4-0.8,4-0.9,5.6c-0.1,2.5,0,5.1,0.2,7.6c0.4,8.1,2.3,17.7,0.2,25.8
				c-0.1,0-0.1,0.1-0.2,0.1c-2-0.2-3.7-0.7-5.1-2.8c-1.5-2.2-2.2-5-3.3-7.5c-1.1-2.5-2.4-4.8-3.8-7.1c-1.6-2.4-4.4-4.8-4.9-7.7
				c-0.1-0.5-0.6-0.3-0.6,0.1c0.2,2.9,1.8,5.2,3.3,7.7c2.4,4.2,3.9,8.5,5.3,13.1c1,3.2,3.4,7.6,6.7,9.2c0.2,0.7,0.6,1.3,1.2,1.6
				c0.1,0,0.2,0.1,0.3,0.1c0.7,1.7,2.3,2.8,4.4,2c0.7-0.4,1.6-0.9,1.9-1.2c0,0,0,0,0,0c5.3-0.9,11.1-4.8,14.5-7.6
				c5.9-4.9,9.8-11.1,11.6-18.5C436.3,736.8,435.8,736.3,435.5,736.9z"/>
			<path fill="#409D61" d="M408.6,764.5c-0.1,0.1-0.2,0.1-0.4,0.2C407.1,765.3,406.4,765.7,408.6,764.5z"/>
		</g>
	</g>
	<g>
		<path fill="#409D61" d="M262,727c1.7,7.1,2.6,15.6,6.9,21.7c2.5,3.4,5.6,4.8,9,5.3c-0.3-0.8-0.6-1.6-0.9-2.3
			c-2.1-5.9-2-12.4-1.2-18.5c1.6-13.3,4-26.8,6.7-39.9c0.2-0.9,1.2-0.6,1.2,0.2c-0.2,11.3-1.5,22.5-1.9,33.8
			c-0.2,5.5,0.1,11.3,2.1,16.5c0.9,2.2,2,4.5,3.6,6.4c0.5,0.6,1,1.1,1.6,1.7c0.8-0.9,1.5-1.8,2.1-2.9c1.5-2.9,2.1-6.2,2.9-9.3
			c1.9-7.9,4.3-15.6,6.5-23.5c0,0,0,0.1-0.1,0.1c-0.1,0-0.1,0-0.2,0c-0.2-0.1-0.2-0.4-0.2-0.5c0.1-0.6,0.2-0.8,0.7-1.1
			c0.3-0.2,0.5-0.2,0.8,0c2.3,1.6,0.6,6.8,0.3,9c-0.6,5.1-1.3,10.1-2.1,15.2c-0.6,4.1-1.1,10.5-2.9,15.7c1-0.2,1.9-0.5,2.9-0.9
			c3.8-1.6,7.7-4.6,9.4-8.3c0.6-1.4,1.8,0.2,1.4,1.2c-3.2,8.9-11.4,17.5-21.8,17c-8.3,2.9-17.4-2.1-22-8.9c-5.3-7.9-5-18.4-5.6-27.4
			C261.1,726.5,261.9,726.3,262,727z"/>
		<path fill="#72BA5B" d="M256.9,742.5c3.1,4.2,6.4,9.1,11.5,11.2c1.8,0.7,3.7,1.1,5.7,1.2c-0.2-0.3-0.4-0.5-0.5-0.7
			c-2.8-4.1-4.9-8.7-5.9-13.5c-1.1-5.3-0.9-10.6-0.3-15.9c0.6-5.2,0.9-10.9,2.7-15.8c0.2-0.5,0.7-0.3,0.8,0.2
			c2.1,8.8-0.4,18.2,1.9,27.1c1.2,4.3,3.3,8.3,6.3,11.8c2,2.3,4.9,3.9,6.8,6.2c2.1-0.2,4.1-0.6,6.2-1.9c3.4-2.1,5.8-5.3,8.2-8.4
			c6-7.9,10.9-16.7,15.5-25.4c0.5-0.9,1.2,0.1,0.9,0.8c-3.9,10.6-9,20.7-14.7,30.5c-3.7,6.3-11.6,16.9-20.6,13.7
			c-2.2-0.5-4.5-1.3-6.6-1.9c-3.2-1-6.4-1.9-9-4c-4.8-3.6-7.3-9.1-9.5-14.4C256.2,742.8,256.5,742,256.9,742.5z"/>
		<path fill="#69A668" d="M266.2,718.3c2.1,1.7,2.2,3.9,2.4,6.3c0.3,4.7,0.7,9.1,2.2,13.6c2.5,7.5,7.2,13.5,13.1,18.7
			c2.7-4.5,3-11.4,3.8-15.9c1.3-7.5,2.3-15.2,4.4-22.6c0.2-0.6,0.7-0.4,0.7,0.1c0.2,9.6-1.3,19.3-2,28.9c-0.3,4.9-0.3,9.9-2.3,14.2
			c0.8,2.8-1.3,6.6-4,5.1c-2.6,1.9-4.9-1.4-4.7-4.2c-4.6-5-7.9-10.9-10.3-17.3c-1.4-3.7-2.4-7.6-2.8-11.5c-0.2-1.9-0.3-3.8-0.3-5.8
			c0-2.7,1.3-6.5-0.6-8.8C265.6,718.8,265.8,717.9,266.2,718.3z"/>
	</g>
	<g>
		<path fill="#409D61" d="M341.9,702.7c-2.3,8.4-3.5,18.6-9.5,25.8c-3.4,4.1-7.6,5.8-12.3,6.3c0.5-0.9,0.9-1.9,1.2-2.7
			c2.8-7,2.7-14.7,1.7-22c-2.2-15.8-5.4-31.8-9.2-47.4c-0.3-1.1-1.6-0.8-1.6,0.3c0.3,13.4,2,26.7,2.6,40.1
			c0.3,6.6-0.1,13.4-2.9,19.6c-1.2,2.7-2.8,5.3-4.9,7.5c-0.7,0.7-1.4,1.4-2.2,2c-1.1-1-2.1-2.1-2.9-3.4c-2.1-3.4-2.9-7.3-3.9-11.1
			c-2.6-9.4-5.9-18.6-8.8-27.9c0,0.1,0.1,0.1,0.1,0.1c0.1,0,0.2,0,0.2-0.1c0.3-0.1,0.3-0.4,0.3-0.6c-0.1-0.7-0.2-0.9-0.9-1.3
			c-0.4-0.2-0.7-0.2-1,0c-3.2,1.9-0.8,8.1-0.4,10.7c0.8,6.1,1.8,12.1,2.9,18.1c0.9,4.8,1.4,12.4,4,18.6c-1.3-0.2-2.6-0.6-4-1.1
			c-5.2-1.9-10.6-5.5-12.8-9.9c-0.8-1.7-2.4,0.2-1.9,1.4c4.4,10.5,15.6,20.8,29.8,20.3c11.4,3.4,23.8-2.4,30.1-10.6
			c7.3-9.4,6.8-21.8,7.6-32.6C343.2,702.1,342.1,701.9,341.9,702.7z"/>
		<path fill="#72BA5B" d="M348.9,721.1c-4.2,5-8.8,10.8-15.8,13.3c-2.5,0.9-5.1,1.2-7.8,1.4c0.2-0.3,0.5-0.6,0.7-0.9
			c3.9-4.9,6.7-10.4,8.1-16.1c1.6-6.3,1.2-12.6,0.4-18.9c-0.8-6.2-1.3-12.9-3.7-18.8c-0.3-0.6-1-0.3-1.1,0.2
			c-2.8,10.5,0.6,21.7-2.7,32.2c-1.6,5.2-4.5,9.9-8.6,14c-2.7,2.7-6.8,4.7-9.3,7.4c-2.9-0.3-5.6-0.7-8.5-2.2c-4.6-2.5-8-6.3-11.2-10
			c-8.2-9.4-14.9-19.8-21.2-30.1c-0.7-1.1-1.6,0.1-1.3,0.9c5.3,12.6,12.3,24.6,20.1,36.2c5,7.5,15.9,20.1,28.2,16.3
			c3.1-0.6,6.1-1.5,9-2.3c4.4-1.1,8.7-2.3,12.3-4.7c6.5-4.3,9.9-10.8,13-17.1C349.9,721.5,349.4,720.5,348.9,721.1z"/>
		<path fill="#69A668" d="M336.1,692.3c-2.8,2-3.1,4.6-3.2,7.5c-0.4,5.6-0.9,10.9-2.9,16.2c-3.4,8.9-9.8,16.1-17.9,22.2
			c-3.8-5.3-4.1-13.6-5.2-18.9c-1.8-8.9-3.2-18.1-6.1-26.8c-0.2-0.7-1-0.5-1,0.2c-0.2,11.4,1.8,22.9,2.7,34.3
			c0.4,5.9,0.4,11.8,3.2,16.9c-1.1,3.3,1.8,7.9,5.5,6c3.5,2.3,6.7-1.6,6.4-5c6.3-5.9,10.8-13,14.1-20.5c1.9-4.4,3.3-9,3.9-13.7
			c0.3-2.3,0.5-4.6,0.4-6.9c0-3.2-1.8-7.8,0.8-10.5C337.1,693,336.7,691.9,336.1,692.3z"/>
	</g>
</g>
<g id="alphabet" class="clickable">
	<title>A</title>
	<g id="a_1_">
		<path fill="#F2F2F2" stroke="#333333" stroke-width="2.8346" stroke-miterlimit="10" d="M324.9,781h-94.8l-18.3,63.8h-76.5
			l103.3-303.9h78.2l103.3,303.9h-76.5L324.9,781z M277.3,610.1c0,0-6.8,33.2-12.3,52.3l-17.4,59.1h59.9l-17-59.1
			c-5.5-19.1-12.3-52.3-12.3-52.3H277.3z"/>
		<path fill="#F2F2F2" stroke="#333333" stroke-width="2.8346" stroke-miterlimit="10" d="M556.1,708.3h3v-3.8
			c0-18.3-14-24.2-32.3-24.2c-27.6,0-59.1,20.8-59.1,20.8l-25.5-51.9c0,0,37.8-28.5,91.8-28.5c61.6,0,98.6,33.6,98.6,89.3v134.7
			h-67.2v-13.2c0-7.2,0.9-13.6,0.9-13.6h-0.9c0,0-16.2,31.9-62.1,31.9c-40.8,0-74.4-27.2-74.4-70.6
			C429.1,715.5,522.1,708.3,556.1,708.3z M523.8,793.7c19.1,0,36.1-20.8,36.1-38.7v-4.7h-6.8c-23.4,0-50.2,6.8-50.2,25.1
			C503,785.6,509.4,793.7,523.8,793.7z"/>
	</g>
</g>
<g id="animations">
	<path id="motion-path-2" fill="none" stroke="#333333" stroke-width="3" stroke-miterlimit="10" d="M359.9,242.8
		c0,0-115.3,33.3-108.8,93.6c5.4,50-48.5,64-46.8,90.7c2.3,35.4,41.2,53,41.5,82.9c0.4,34.2-45.6,68.7-39.5,106.9
		c6.8,42.7-20.7,81-26.4,98.9c-5.4,16.8,39.7,32.7,36.7,62c-4.2,40.7,61.2,64.4,61.2,64.4"/>
	<path id="motion-path-1" fill="none" stroke="#333333" stroke-width="3" stroke-miterlimit="10" d="M604.6,895.7
		c0,0,78.3-9.8,82.4-45.8c3.1-27.5-93.7-64.3-92.3-93.4c1.3-27.5,78.9-40.7,78.5-70.8c-0.6-40.7-115.3-28-120.6-90.6
		c-3.7-43.4,34.8-61.5,35.7-100.6c1.1-46.7-47-76.2-49.8-106.5c-3.9-41.6,39.3-43.5,42.6-69.3c4.8-36.7-16.9-43.5-33.6-71.3"/>
	<path id="leave-1" fill="#B18300" d="M518.4,238.4c2.6,1.3,5.1,3.6,7.3,6.7c10.2,13.7,27.7,18.4,44.6,11.8
		c-8.2-12.2-19-19.7-33.5-16.8c-6.6,1.3-11.2-0.5-16.4-4.1C519.5,236.6,518.8,237.4,518.4,238.4z"/>
	<path id="leave-2" fill="#CCB400" d="M369.6,234.5c-10.4-2.7-22.1,3.2-27.4,14.4c12.3,5.5,23.4,2.9,32.5-7.1
		c1.4-1.5,3.9-2.5,6.1-2.8c-0.5-0.9-1-1.8-1.3-2.8C375.9,235.8,372.7,235.3,369.6,234.5z"/>
</g>
</svg>
