<?xml version="1.0" encoding="utf-8"?>
<!-- Generator: Adobe Illustrator 18.1.1, SVG Export Plug-In . SVG Version: 6.00 Build 0)  -->
<svg version="1.1" xmlns="http://www.w3.org/2000/svg" xmlns:xlink="http://www.w3.org/1999/xlink" x="0px" y="0px"
	 viewBox="0 0 768 1024" enable-background="new 0 0 768 1024" xml:space="preserve">
<g id="background">
	<rect fill="#FFDD06" width="768" height="1024"/>
</g>
<g id="elements">
	<g id="bee" class="clickable">
		<title>Bee</title>
		<path fill="#333333" d="M250.8,751.7c-1.5,1.9-2.9,3.9-4.1,5.4c-9.5-5.3-18.5-11-28.1-15.4c-9.5-4.3-19.6-7.3-29.7-11.1
			c1.3-1.5,2.7-3,4.8-5.4c-3.9,1.6-6.9,2.9-9.9,4.1c-7.5,2.9-14.8,6.8-23.2,5.6c-19-2.5-35.4-10.2-48.5-24.3c-0.9-0.9-1.6-2-2.3-3.1
			c-6.8-10.1-4.7-20.2,6.5-25.4c8.5-4,17.6-7.2,26.7-9.4c24.9-6.2,50.3-8,75.9-8.3c21.2-0.2,42.3,0.5,63.5,0.8c1,0,2,0,2.9,0
			c0.1-0.3,0.2-0.6,0.3-0.9c-1.3-0.8-2.5-1.7-3.8-2.5c-6.5-3.7-13.9-3.8-20.9-5.4c-21.6-4.8-41.7-13-59.3-26.7
			c-11.2-8.7-19.7-19.3-22.6-33.6c-1.8-8.8-1.9-17.7,0.5-26.4c4.9-17.8,21.4-28.5,41-26.6c16.9,1.6,31.7,8.8,45.3,18.3
			c24.9,17.5,41.6,41.7,54.6,68.7c0.7,1.4,1.3,2.7,2,4.1c0.1,0.2,0.3,0.3,0.9,0.9c0.6-2.4,1.2-4.5,2-7.8c1.4,2.3,2.2,3.9,3.2,5.5
			c0.9,1.5,2,3,3.4,5.1c1.1-2.9,1.9-5.1,3.1-8.2c2.6,4.4,4.7,8.1,7.1,12.2c0.5-2.8,1-5.3,1.6-8.8c1.6,2.7,2.7,4.6,4.5,7.4
			c0.8-3.4,1.4-5.8,2.1-8.6c1.7,1.2,3.6,2.5,5.5,3.9c0.3-0.1,0.6-0.2,0.9-0.3c-0.5-1.9-1-3.9-1.7-6.7c3.2,1.8,6,3.3,9.2,5.1
			c-0.6-1.9-1-3.3-1.6-5.1c8,2,11.4,10,18.1,13.3c0.4-0.2,0.7-0.5,1.1-0.7c-1.2-2.8-2.5-5.7-3.6-8.3c8.4,1.2,14.4,11,17.6,29.8
			c2.9-1.1,4.2-3.5,4.6-6c1.2-6.3,1.7-12.7,2.9-19c1.6-8.5,2.9-17.1,5.7-25.2c5.2-15.1,16.4-22.2,32.4-21.6c4.4,0.2,8.7,0.8,13,1.2
			c0,0.3-0.1,0.6-0.1,0.8c-3.1,0-6.1,0-9.2,0c-19.2,0-29.9,9.1-32.9,28c-1.4,9-2.3,18.1-3.9,27.1c-0.6,3.6-2.3,7.1-3.7,10.5
			c-0.7,1.5-1.8,3.4-3.2,4c-4.9,2-6.8,5.7-6.9,10.6c0,0.3-0.4,0.5-0.7,1c-3.4-4-6.2-8.3-10-11.7c-4.6-4-9.6-7.8-15-10.6
			c-5.8-3-11.9-1.9-17.2,2c-0.8,0.6-1.8,1.6-1.8,2.3c0.2,9.1-1,18.3,1.8,27.2c4.3,13.6,13.9,20.8,27.5,23.6c0.5,0.1,0.9,0.1,1.4,0.2
			c8.8,1.6,12.1-1,12-9.9c-0.1-3.8-1-7.6-1.3-11.5c-0.2-2.4,0-4.9,0.5-7.2c0.5-2.2,1.8-2.3,3.5-0.6c1.2,1.2,2.9,2.2,4.6,2.5
			c7.9,1.5,15.7,0.5,23.2-1.9c12.6-4,25-8.4,37.5-12.6c7.7-2.6,15.3-5.2,23.6-3.9c8.7,1.4,13.5,7.1,16,15.1
			c-1.1-1.6-2.1-3.2-3.2-4.7c-4.5-6-10.6-9.1-17.7-7.2c-9,2.4-17.7,5.9-26.4,9.2c-8.8,3.3-17.4,7.6-26.4,10.4
			c-8.7,2.7-17.8,2.5-26.5-0.8c-0.4-0.1-0.8-0.2-1.2-0.2c1.2,5.4,2.9,10.5,3.4,15.8c0.6,6.6,0.2,13.3,0.5,19.9
			c0.1,1.8,0.4,4.1,1.6,5.3c2.6,2.7,5.7,5.1,8.8,7.2c1,0.7,2.7,0.4,4.8,0.6c1.5,2.4,3.4,5.4,5.7,9c-7.1-1.2-13.4-2.6-18.7-6.4
			c-4-2.9-5.1-7.6-5.4-12.1c-0.2-3.3-1.7-5.6-4.4-6.5c-4.5-1.6-9.1-2.8-13.8-3.7c-3.2-0.6-6.5-0.6-9.8-0.9
			c-8.8-0.8-17.1-2.6-23.3-11c-0.5,6.3,2.5,10.6,4.2,15.7c-2.2-0.9-4-1.6-5.8-2.2c-2.5-0.8-3.9-0.2-3.4,2.8c0.2,1.3,0.3,2.7,0.4,4.7
			c-2.8-2.1-5-3.7-7.3-5.4c-1.5,3.5-2.8,6.8-4.5,10.7c-1.3-2.6-2.2-4.4-3.1-6.2c-1.9-3.6-3.7-3.8-6.1-0.5c-0.7,1-1.3,2.2-2.3,4
			c-0.9-4.1-1.7-7.4-2.6-11.7c-1.3,3.3-2.2,5.8-3.3,8.6c-2.2-0.7-4.2-1.3-6.6-2c1.1-2.6,2.2-4.8,2.9-7.1c2.1-6.3,4.2-12.6,6.1-19
			c1.1-3.7,0.2-5-3.7-5.4c-5.6-0.5-11.2-0.7-16.8-0.4c-16.7,0.8-31.8,7.2-47,13.2c-7.3,2.9-14.4,6.1-21.6,9.2c-1,0.4-2,1-3.7,1.9
			c15.3,3.5,28.8,9.1,40.7,17.9c-4.5,7.1-8.8,13.8-13,20.5C251.1,750.9,251,751.3,250.8,751.7z M306.5,640.2
			c-12.6-21-28.5-39.3-43.5-59.6c-1.2,8.5-2.3,15.8-3.1,23.2c-0.1,1.1,0.8,2.6,1.7,3.5c8.5,8.6,16.8,17.3,25.6,25.5
			C292.4,637.6,299.3,639.4,306.5,640.2z M269.7,680.9c-0.7-0.1-1.3-0.3-2-0.3c-24.4-1.6-48.6-0.3-72.5,5.1
			c-5.9,1.3-5.9,1.4-4.9,7.5c0.6,4,1.3,7.9,2,12C218.2,696,243.5,687,269.7,680.9z M229.9,577.8c-0.3-1-0.4-1.5-0.6-2
			c-4.6-9.2-9.1-18.4-13.8-27.5c-0.5-1-2.6-1.9-3.9-1.8c-9.6,0.3-16.3,5.4-21.1,13.5c-1.3,2.2-0.7,3.2,1.2,4.5
			c7.4,4.8,14.8,9.8,22.2,14.7c0.9,0.6,2.2,1.1,3.2,0.9C221.2,579.5,225.3,578.6,229.9,577.8z M244.2,627.5c0.7,0.5,0.9,0.8,1.2,0.9
			c12.7,6.4,25.4,12.9,38.2,19.2c2,1,4.5,1.4,6.7,1.5c2.4,0.1,3.3-1.5,2.1-3.8c-0.5-1-1.3-1.9-2.1-2.8
			c-10.4-11.2-20.8-22.4-31.2-33.6c-0.4-0.5-1.1-0.7-1.8-1.2C253,614.3,248.6,620.8,244.2,627.5z M255.4,605.3
			c-12.2,0-23.7,0-35.4,0c0.4,9.1,0.7,17.7,1.1,26.8c4.4-1.2,8.2-2.7,12.1-3.3c5.5-0.9,9.2-3.8,12-8.5
			C248.2,615.3,251.8,610.5,255.4,605.3z M188,565.4c-2.8,7.5-3.3,14.6-2.6,21.9c0.6,6.6,0.6,6.6,6.9,8.1c7.7,1.8,15.3,3.6,23.4,5.5
			c-0.8-5.7-1.6-10.9-2.4-16.1c-0.1-0.6-0.6-1.3-1.1-1.7C204.4,577.3,196.5,571.6,188,565.4z M282.2,655.4c0.2-0.5,0.4-0.9,0.6-1.4
			c-1.7-1.5-3.3-3.3-5.3-4.5c-8.1-5-16.2-10.1-24.6-14.7c-10-5.5-10.1-5.3-20.9-1.9c-3.1,1-6.3,2-9.4,3
			C241.5,646.5,260.9,654,282.2,655.4z M259,564.5c-0.4,0.2-0.7,0.5-1.1,0.7c2.1,4.5,3.3,9.6,6.3,13.4
			c13.9,17.6,28.2,34.8,42.5,52.1c1.5,1.8,3.8,2.9,5.8,4.3c0.3-0.3,0.5-0.6,0.8-1C300.3,606.9,284,582.3,259,564.5z M180.1,673.5
			c2.8,3.3,5.3,5.8,7.3,8.6c1.4,1.9,2.8,1.9,4.8,1.5c8.5-1.8,16.9-3.8,25.4-5.1c18.6-2.8,37.3-2.4,56-1.9c0.7,0,1.5-0.1,2.2-0.2
			c0-0.3,0-0.6,0.1-0.9c-6-3.2-12.7-2-19.7-2.4c1.2-0.6,1.9-1,3.3-1.7C232.7,670.4,206.8,671,180.1,673.5z M145.6,708.3
			c3.6,0.7,6.9,0.9,9.8,1.9c5.5,1.9,9.2,0.5,12.7-4.2c4.4-5.9,9.7-11.2,14.5-16.6c-10.8,0-21.4,0-31.9,0.1c-0.5,0-1.4,0.8-1.6,1.4
			C147.9,696.6,146.8,702.3,145.6,708.3z M251.7,602.3c0.2-0.3,0.4-0.6,0.6-0.8c-6.1-6.8-12.2-13.7-18.3-20.5
			c-0.4-0.4-1.3-0.7-1.8-0.6c-5.4,0.9-10.7,1.9-16.3,2.9c1.2,6,2.3,11.6,3.6,17.1c0.2,0.8,1.5,1.8,2.3,1.8
			C231.7,602.3,241.7,602.3,251.7,602.3z M187.6,596.5c1.4,12.4,14.7,28.2,28.7,35.7c0-8.3,0.1-16.9-0.1-25.5c0-0.8-1.2-1.9-2.1-2.2
			c-4-1.3-8-2.5-12-3.7C197.3,599.5,192.5,598,187.6,596.5z M235.1,577.8c7.2,8.3,13.9,16,20.8,24c3.3-14.5,6.3-28.4-2.5-40.6
			C247.3,566.8,241.3,572.1,235.1,577.8z M145.6,690.6c-11.3,2.7-22,5.2-33.2,7.9c1.4,2.5,2.1,4.6,3.4,6c3.6,3.7,7.5,7,11.3,10.5
			c2,1.8,3.8,2.1,6,0.1c2.5-2.2,5.5-4,8.2-6.1c0.7-0.5,1.7-1.2,1.8-2C144,701.8,144.7,696.6,145.6,690.6z M186.1,690.5
			c-0.3-0.1-0.6-0.2-0.9-0.3c-6.7,7.7-13.3,15.5-20.6,23.9c2.8,2.4,5.4,4.5,7.8,6.9c4.7,4.8,3.1,4.2,9.4,2c3.1-1.1,4.3-2.9,5.3-6
			C190.2,707.9,187,699.3,186.1,690.5z M233.6,575.4c5.6-5.7,10.8-11,16.3-16.6c-10-5.7-20.2-10.6-32.7-12.1
			C222.9,556.6,228.1,565.8,233.6,575.4z M260,688.9c-0.7,0.1-1.6,0.1-2.5,0.3c-20.8,4-41,10.3-60.6,18.3c-4.7,1.9-7.1,6.2-6.7,11.7
			C213.6,709,236.9,698.9,260,688.9z M185.1,684.6c-2.8-3.7-4.9-6.6-7.2-9.4c-0.6-0.7-2-1.2-3-1.1c-7.5,1-15,2.2-22.5,3.4
			c-0.8,0.1-2,1-2.1,1.7c-0.4,2.2-0.4,4.6-0.5,7.3C161.5,685.9,172.8,685.3,185.1,684.6z M159.8,714.3c-10.7-4.4-19.4-2.9-27,5.2
			c6.5,2.5,12.6,4.9,18.9,7.1c0.6,0.2,2-0.5,2.4-1.2C156.1,721.8,157.9,718.2,159.8,714.3z M112.2,694.9c0.3,0.3,0.6,0.7,0.8,1
			c10.6-3.1,21.2-6.1,31.8-9.2c0.5-0.1,1.2-0.9,1.2-1.4c0.1-2,0.1-4,0.1-6.5c-10.5,2.7-20.4,5.3-29.1,10.8
			C115,690.8,113.8,693.1,112.2,694.9z M172.4,726.4c-3.1-3.2-6.2-6.4-9.4-9.6c-1.9,3.4-3.9,7-6.2,10.9
			C162.9,728.8,168,728.8,172.4,726.4z"/>
		<path fill="#333333" d="M239,790.7c-19.3-2.1-37.3-5.9-52-18.8c-1.7-1.5-3.2-3.4-4.6-5.3c-3.6-4.7-5.3-9.7-2.4-15.6
			c1.7-3.5,2.5-7.5,3.9-12c5.7,1.9,11.3,3.4,16.6,5.7c13.4,5.6,25.5,13.3,36.4,22.8c1.4,1.2,1.5,2.3,1.4,4.2c-0.4,5-0.1,10,0,15
			C238.4,787.7,238.7,788.8,239,790.7z"/>
		<path fill="#333333" d="M175.6,774.5c16.8,18.2,24.9,22,58.1,27.3c-0.5,9.4-5.7,15.2-14.8,16.1c-13.8,1.3-26.6-2.1-38.6-9
			c-5-2.9-7.7-7.4-7.6-13c0.1-7.2,1.1-14.3,1.7-21.5C174.8,774.5,175.2,774.5,175.6,774.5z"/>
		<path fill="#333333" d="M310.2,691.5c0.1,7.5-5.6,27.5-9.4,32.9c-9.5-10.1-22.3-12.3-35-13.5c-10.4-1-20.9-0.2-31-0.2
			C245,702.1,297.1,688.6,310.2,691.5z"/>
		<path fill="#333333" d="M386.4,689.2c-0.4,5.1-0.1,10.5-4.8,13c-4.7,2.5-9.4,0.1-13.5-2.4c-11.1-6.8-16.3-26.5-10.2-37.9
			c2.1-4,5.1-5.4,9.3-3.8c2.7,1,5.3,2.6,7.3,4.6C382,670.1,385.4,679.4,386.4,689.2z"/>
		<path fill="#333333" d="M255.6,864.1c2-7.5-0.4-14.7-3.1-21.7c-3-7.7-4.7-15.6-3.9-24c0.6-5.6,1.3-6.5,6.8-6.5
			c2.8,0,5.6,0,8.4-0.1c4.5,0,7.5,1.7,8,6.2c0.6,4.9,0.5,10-0.3,14.9c-1.3,7.7-4.4,14.9-8.6,21.7c-2.4,3.9-3.6,8.9-4.3,13.5
			c-0.8,5.2,1.2,9.7,6.2,12.3c0.4,0.2,0.9,0.4,1.1,0.8c0.8,1.1,1.5,2.4,2.2,3.6c-1.6-0.1-3.6,0.5-4.8-0.3c-4.8-2.9-8-7.1-7.9-13.1
			C255.7,869,255.6,866.6,255.6,864.1z"/>
		<path fill="#333333" d="M379.9,843c-2.4-1.7-5.1-3.1-7.1-5.1c-3.9-4.1-8.5-6.4-14-7.2c-10.7-1.6-19.7-6.4-26.3-15.2
			c-3.4-4.5-5.5-9.6-4-15.4c0.6-2.1,1.6-4.2,3-5.8c4.6-5.4,9.7-5.3,13.3,0.9c3.4,5.9,5.8,12.5,8.7,18.7c1.5,3.2,2.9,6.4,4.6,9.4
			c1.6,2.9,4.1,4.6,7.6,5.7c6.8,2.1,11.5,7.1,15.3,12.8C380.6,842.1,380.2,842.6,379.9,843z"/>
		<path fill="#333333" d="M248.4,770.2c3,5.1,4,5.3,8.2,2.1c1.3-1,2.7-2.1,4.9-3.7c0.7,3.2,1.3,5.6,1.7,8c1.6,8.8,3.1,17.7,4.9,26.4
			c0.5,2.7-0.2,3.5-2.8,3.1c-5.1-0.6-10,0-14.6,2.5c-3.7,1.9-6.1,0.9-6.8-3.3c-0.6-3.3-1-6.8-0.6-10.1c0.8-7,2.2-14,3.5-21
			C246.9,773.1,247.7,772,248.4,770.2z"/>
		<path fill="#333333" d="M418.9,787.7c-0.3-0.5-0.8-0.9-0.8-1.4c-0.4-5.6-4.3-7.4-8.9-8.3c-2.6-0.5-5.3-1.2-7.9-1.3
			c-4.3-0.2-7.5-2.2-10.1-5.5c-5.6-7.3-9.1-15.5-10.4-24.5c-1-6.4,4.2-12.2,10.8-12.3c3.4-0.1,4.7,1.6,5.2,5.6
			c0.8,6.7,1.6,13.4,2.9,20c1.3,6.4,4.4,11.3,11.3,13.4c4.2,1.3,7.5,4.4,8.9,8.8c0.5,1.6,0.3,3.5,0.4,5.2
			C419.7,787.6,419.3,787.7,418.9,787.7z"/>
		<path fill="#333333" d="M187.7,858.2c-2-2.9-4.9-5.4-5.9-8.6c-2.7-8.8-4.5-17.8-6.7-26.7c-0.5-2.2,0.8-2.8,2.6-2.3
			c1.5,0.5,3,1.3,4.3,2.2c7.5,5.6,15.7,7.3,24.8,5.4c2.8-0.6,4,0.7,2.9,3.5c-0.5,1.3-1.4,2.5-2.3,3.4c-2.3,2.1-4.7,4.2-7.2,6.1
			c-4.6,3.5-7.9,7.9-9.7,13.4c-0.3,1.1-0.9,2.1-1.3,3.1C188.6,857.9,188.2,858.1,187.7,858.2z"/>
		<path fill="#333333" d="M250.8,751.7c0.1-0.4,0.3-0.8,0.4-1.2c5.6-4.5,12.1-4.7,18.9-4.8c9-0.1,17.4-2.2,23.7-9.4
			c0.6-0.7,2-0.9,3-1.3c0.3,1.1,0.9,2.1,0.9,3.2c0.1,4.6-1.8,8.3-6.1,10.1c-4.9,2.1-10,4-15.1,5.6c-6.4,2.1-12.4,4.6-16.6,10.3
			c-2,2.7-5.3,5.6-9,3.6c-3.3-1.8-2.4-5.7-1.8-8.9C249.6,756.5,250.3,754.1,250.8,751.7z"/>
		<path fill="#333333" d="M241,712.9c4.4,0,8.8-0.5,13.1,0.1c9.9,1.4,19.8,3.1,29.6,5.2c3.4,0.7,6.7,2.8,9.5,4.9
			c3.5,2.7,3.2,7.1-0.8,8.8c-4.5,1.9-9.6,2.7-14.4,3.8c-0.7,0.1-1.8-0.5-2.3-1.2c-4.9-7.5-12.2-11.7-20.1-15.1
			c-4.8-2.1-9.8-3.7-14.7-5.6C240.9,713.6,241,713.3,241,712.9z"/>
		<path fill="#333333" d="M312.9,766.2c0.2-1.2,0.5-3.7,1-6.1c0.5-3,2.4-3.3,4.5-1.8c2.1,1.5,4.3,3,5.8,5c3.9,5.2,8,10.3,11.1,16
			c2.9,5.3-1.2,12.2-7.3,12.8c-1.8,0.2-4.2-1-5.6-2.3C316,783.9,313,776.3,312.9,766.2z"/>
		<path fill="#333333" d="M301.5,745.7c1.2-6.7,2.2-13.4,3.5-20c0.8-3.8,3.2-4.4,5.6-1.5c6.4,7.9,10.3,16.9,11.1,27.1
			c0.3,4-1,4.8-5,4.4c-2.2-0.2-4.2-0.4-5.9,1.9c-1.5,2.1-5.9,1.1-6.9-1.7C302.7,752.7,302.3,749.2,301.5,745.7z"/>
		<path fill="#333333" d="M389.9,729.3c-6.9,6.1-13.4,11.9-20,17.5c-5.1,4.3-8.4,3.3-11-2.8c-0.8-1.9-1.4-4-1.7-6
			c-0.4-2.6,0.4-5.3,3.1-6.1c7.3-2,14.6-3.7,22-5.4c1.3-0.3,2.9-0.1,4.1,0.4C387.8,727.6,389.1,728.8,389.9,729.3z"/>
		<path fill="#333333" d="M358.2,750.5c-5.3-3.5-10.9-6.6-15.9-10.5c-4.2-3.3-4.7-8.9-1.9-13.3c2.5-4.1,9.6-7.1,13.7-5.8
			c3,1,4.6,7.4,2.1,9.9c-3.5,3.5-3.2,7.3-1.4,11.2c1.2,2.6,2.8,5,4.3,7.5C358.7,749.9,358.5,750.2,358.2,750.5z"/>
		<path fill="#FFFFFF" d="M306.5,640.2c-7.2-0.8-14.1-2.6-19.3-7.4c-8.8-8.2-17.2-16.9-25.6-25.5c-0.9-0.9-1.8-2.4-1.7-3.5
			c0.8-7.4,2-14.7,3.1-23.2C278,600.9,293.9,619.2,306.5,640.2z"/>
		<path fill="#FFFFFF" d="M269.7,680.9c-26.2,6.1-51.5,15.1-77.4,24.3c-0.7-4.1-1.4-8.1-2-12c-1-6-1-6.1,4.9-7.5
			c23.9-5.4,48.1-6.7,72.5-5.1C268.4,680.6,269.1,680.8,269.7,680.9z"/>
		<path fill="#FFFFFF" d="M229.9,577.8c-4.5,0.8-8.7,1.6-12.8,2.2c-1,0.1-2.3-0.3-3.2-0.9c-7.4-4.8-14.8-9.8-22.2-14.7
			c-1.9-1.2-2.5-2.3-1.2-4.5c4.8-8.1,11.4-13.2,21.1-13.5c1.3,0,3.3,0.8,3.9,1.8c4.8,9.1,9.3,18.3,13.8,27.5
			C229.5,576.3,229.6,576.9,229.9,577.8z"/>
		<path fill="#FFFFFF" d="M244.2,627.5c4.4-6.7,8.7-13.2,13.2-19.9c0.7,0.5,1.3,0.7,1.8,1.2c10.4,11.2,20.8,22.4,31.2,33.6
			c0.8,0.9,1.5,1.8,2.1,2.8c1.2,2.3,0.3,3.9-2.1,3.8c-2.3,0-4.7-0.5-6.7-1.5c-12.8-6.3-25.4-12.7-38.2-19.2
			C245.1,628.2,244.9,628,244.2,627.5z"/>
		<path fill="#FFFFFF" d="M255.4,605.3c-3.6,5.2-7.2,10-10.2,15c-2.8,4.7-6.4,7.6-12,8.5c-3.9,0.6-7.6,2-12.1,3.3
			c-0.4-9.1-0.7-17.8-1.1-26.8C231.7,605.3,243.3,605.3,255.4,605.3z"/>
		<path fill="#FFFFFF" d="M188,565.4c8.5,6.2,16.4,11.9,24.3,17.7c0.5,0.4,1,1.1,1.1,1.7c0.8,5.2,1.6,10.3,2.4,16.1
			c-8.1-1.9-15.8-3.7-23.4-5.5c-6.4-1.5-6.3-1.5-6.9-8.1C184.7,580,185.3,573,188,565.4z"/>
		<path fill="#FFFFFF" d="M282.2,655.4c-21.3-1.4-40.7-8.9-59.6-19.5c3.1-1,6.3-2,9.4-3c10.8-3.4,10.9-3.6,20.9,1.9
			c8.4,4.6,16.5,9.7,24.6,14.7c1.9,1.2,3.5,3,5.3,4.5C282.6,654.5,282.4,654.9,282.2,655.4z"/>
		<path fill="#FFFFFF" d="M259,564.5c25,17.8,41.3,42.4,54.3,69.6c-0.3,0.3-0.5,0.6-0.8,1c-1.9-1.4-4.3-2.5-5.8-4.3
			c-14.3-17.3-28.6-34.5-42.5-52.1c-3-3.8-4.2-8.9-6.3-13.4C258.3,565,258.6,564.8,259,564.5z"/>
		<path fill="#FFFFFF" d="M180.1,673.5c26.7-2.5,52.6-3.1,79.4-2.2c-1.4,0.7-2.1,1.1-3.3,1.7c7,0.4,13.7-0.8,19.7,2.4
			c0,0.3,0,0.6-0.1,0.9c-0.7,0.1-1.5,0.2-2.2,0.2c-18.7-0.5-37.4-0.8-56,1.9c-8.5,1.3-17,3.3-25.4,5.1c-2,0.4-3.4,0.4-4.8-1.5
			C185.4,679.3,183,676.8,180.1,673.5z"/>
		<path fill="#FFFFFF" d="M145.6,708.3c1.2-6,2.3-11.7,3.5-17.4c0.1-0.6,1-1.4,1.6-1.4c10.6-0.1,21.1-0.1,31.9-0.1
			c-4.8,5.4-10,10.7-14.5,16.6c-3.5,4.7-7.3,6-12.7,4.2C152.5,709.2,149.3,709,145.6,708.3z"/>
		<path fill="#FFFFFF" d="M251.7,602.3c-10,0-20,0-30-0.1c-0.8,0-2.2-1.1-2.3-1.8c-1.3-5.5-2.4-11.1-3.6-17.1c5.6-1,11-2,16.3-2.9
			c0.6-0.1,1.4,0.2,1.8,0.6c6.1,6.8,12.2,13.7,18.3,20.5C252.1,601.7,251.9,602,251.7,602.3z"/>
		<path fill="#FFFFFF" d="M187.6,596.5c4.9,1.5,9.7,3,14.4,4.4c4,1.2,8.1,2.3,12,3.7c0.9,0.3,2.1,1.4,2.1,2.2
			c0.1,8.6,0.1,17.2,0.1,25.5C202.3,624.7,189,608.9,187.6,596.5z"/>
		<path fill="#FFFFFF" d="M235.1,577.8c6.2-5.6,12.2-11,18.3-16.5c8.9,12.2,5.8,26,2.5,40.6C248.9,593.8,242.3,586.1,235.1,577.8z"
			/>
		<path fill="#FFFFFF" d="M145.6,690.6c-0.9,5.9-1.6,11.2-2.5,16.5c-0.1,0.7-1.1,1.4-1.8,2c-2.7,2-5.6,3.8-8.2,6.1
			c-2.2,2-4,1.8-6-0.1c-3.8-3.5-7.7-6.8-11.3-10.5c-1.4-1.4-2.1-3.5-3.4-6C123.6,695.9,134.3,693.3,145.6,690.6z"/>
		<path fill="#FFFFFF" d="M186.1,690.5c0.8,8.8,4,17.4,1,26.5c-1,3.1-2.2,4.9-5.3,6c-6.4,2.2-4.7,2.8-9.4-2c-2.4-2.4-5-4.5-7.8-6.9
			c7.3-8.4,13.9-16.2,20.6-23.9C185.5,690.3,185.8,690.4,186.1,690.5z"/>
		<path fill="#FFFFFF" d="M233.6,575.4c-5.5-9.6-10.7-18.7-16.4-28.7c12.5,1.5,22.7,6.4,32.7,12.1
			C244.4,564.3,239.2,569.7,233.6,575.4z"/>
		<path fill="#FFFFFF" d="M260,688.9c-23.1,10-46.4,20.2-69.8,30.3c-0.4-5.6,1.9-9.8,6.7-11.7c19.6-8,39.8-14.3,60.6-18.3
			C258.4,688.9,259.4,688.9,260,688.9z"/>
		<path fill="#FFFFFF" d="M185.1,684.6c-12.3,0.7-23.6,1.3-35.4,1.9c0.2-2.7,0.1-5,0.5-7.3c0.1-0.7,1.3-1.6,2.1-1.7
			c7.5-1.2,15-2.4,22.5-3.4c1-0.1,2.4,0.4,3,1.1C180.2,678,182.3,680.9,185.1,684.6z"/>
		<path fill="#FFFFFF" d="M159.8,714.3c-2,3.9-3.7,7.6-5.7,11.1c-0.4,0.7-1.8,1.4-2.4,1.2c-6.2-2.2-12.4-4.6-18.9-7.1
			C140.5,711.4,149.2,709.9,159.8,714.3z"/>
		<path fill="#FFFFFF" d="M112.2,694.9c1.6-1.8,2.9-4.2,4.8-5.4c8.7-5.5,18.5-8.1,29.1-10.8c0,2.5,0.1,4.5-0.1,6.5
			c0,0.5-0.7,1.3-1.2,1.4c-10.6,3.1-21.2,6.2-31.8,9.2C112.7,695.6,112.5,695.3,112.2,694.9z"/>
		<path fill="#FFFFFF" d="M172.4,726.4c-4.4,2.4-9.6,2.4-15.6,1.3c2.2-4,4.3-7.5,6.2-10.9C166.2,720,169.3,723.2,172.4,726.4z"/>
	</g>
	<g id="honey">
		<path fill="#FFBC06" d="M674.2,899.8c0,3.6,0,7.1,0,10.7c0,2.7-1.1,4.7-3.5,6.1c-6.2,3.5-12.4,7.1-18.5,10.7c-2.4,1.4-4.7,1.4-7,0
			c-6.2-3.6-12.4-7.2-18.6-10.8c-2.2-1.3-3.4-3.2-3.4-5.8c0-7.3,0-14.6,0-21.9c0-2.4,1.1-4.3,3.1-5.5c6.4-3.7,12.8-7.4,19.3-11.1
			c2-1.2,4.1-1.2,6.1,0c6.5,3.7,13,7.5,19.5,11.3c2,1.2,3,3.1,3,5.5C674.2,892.5,674.2,896.1,674.2,899.8z"/>
		<path fill="#FFBC06" d="M616.4,899.9c0,3.6,0,7.2,0,10.8c0,2.6-1.1,4.5-3.3,5.8c-6.3,3.6-12.6,7.3-18.9,10.9
			c-2.2,1.3-4.5,1.3-6.7,0c-6.2-3.6-12.4-7.2-18.6-10.8c-2.4-1.4-3.6-3.4-3.5-6.2c0-7.1,0-14.1,0-21.2c0-2.8,1.2-4.9,3.6-6.3
			c6.2-3.5,12.3-7.1,18.4-10.6c2.4-1.4,4.6-1.4,7,0c6.1,3.6,12.2,7.1,18.3,10.6c2.5,1.4,3.7,3.4,3.7,6.3
			C616.4,892.8,616.4,896.3,616.4,899.9z"/>
		<path fill="#FFBC06" d="M703.3,949.9c0,3.6,0,7.1,0,10.7c0,2.6-1.1,4.6-3.4,5.9c-6.3,3.6-12.5,7.2-18.7,10.8
			c-2.3,1.3-4.5,1.3-6.8,0c-6.1-3.6-12.3-7.1-18.4-10.6c-2.5-1.4-3.7-3.5-3.7-6.5c0.1-7.1,0-14.1,0-21.2c0-2.7,1.1-4.6,3.4-6
			c6.3-3.6,12.5-7.2,18.8-10.8c2.2-1.3,4.5-1.3,6.7,0c6.3,3.6,12.6,7.3,19,10.9c2.1,1.2,3.2,3.1,3.2,5.6
			C703.3,942.5,703.3,946.2,703.3,949.9z"/>
		<path fill="#FFBC06" d="M565.4,800.4c0-3.6,0-7.2,0-10.8c0-2.6,1.1-4.5,3.3-5.8c6.3-3.6,12.5-7.2,18.7-10.8c2.4-1.4,4.7-1.3,7,0
			c6.2,3.6,12.3,7.2,18.5,10.7c2.3,1.3,3.5,3.3,3.5,6c0,7.2,0,14.4,0,21.6c0,2.7-1.1,4.6-3.5,6c-6.2,3.6-12.4,7.2-18.6,10.8
			c-2.3,1.3-4.5,1.3-6.8,0c-6.3-3.6-12.5-7.2-18.7-10.8c-2.3-1.3-3.4-3.2-3.4-5.9C565.4,807.7,565.4,804,565.4,800.4z"/>
		<path fill="#FFBC06" d="M645.3,850.5c0,3.7,0,7.3,0,11c0,2.5-1.1,4.4-3.2,5.6c-6.3,3.7-12.6,7.3-19,11c-2.2,1.3-4.5,1.3-6.7,0
			c-6.3-3.6-12.6-7.3-18.9-10.9c-2.2-1.3-3.3-3.2-3.3-5.8c0-7.2,0-14.4,0-21.7c0-2.6,1.1-4.6,3.4-5.9c6.3-3.6,12.6-7.3,19-10.9
			c2.1-1.2,4.3-1.2,6.4,0c6.4,3.7,12.8,7.4,19.2,11.1c2.1,1.2,3.2,3.1,3.2,5.5C645.3,843.1,645.3,846.8,645.3,850.5z"/>
		<path fill="#FFBC06" d="M652.2,850.5c0-3.7,0-7.3,0-11c0-2.5,1.1-4.4,3.3-5.7c6.3-3.6,12.6-7.2,18.9-10.9c2.3-1.3,4.5-1.3,6.8,0
			c6.2,3.6,12.4,7.2,18.6,10.8c2.3,1.3,3.5,3.3,3.5,6c0,7.2,0,14.4,0,21.6c0,2.6-1.1,4.6-3.4,5.9c-6.2,3.6-12.4,7.2-18.6,10.8
			c-2.4,1.4-4.7,1.4-7.1,0c-6.1-3.6-12.2-7.1-18.3-10.6c-2.5-1.4-3.7-3.4-3.6-6.3C652.3,857.5,652.2,854,652.2,850.5z"/>
		<path fill="#FFBC06" d="M681.1,899.8c0-3.7,0-7.4,0-11.1c0-2.3,0.9-4.2,2.9-5.3c6.6-3.9,13.2-7.7,19.8-11.4c1.8-1,3.9-1,5.7,0
			c6.6,3.8,13.2,7.5,19.7,11.4c2.1,1.2,3,3.2,3,5.5c0,7.3,0,14.5,0,21.8c0,2.6-1.2,4.5-3.5,5.9c-6.2,3.6-12.4,7.1-18.5,10.7
			c-2.4,1.4-4.7,1.4-7,0c-6.2-3.6-12.5-7.2-18.7-10.8c-2.2-1.3-3.3-3.1-3.3-5.7C681.1,907.1,681.1,903.5,681.1,899.8z"/>
		<path fill="#FFBC06" d="M674.2,800.5c0,3.6,0,7.1,0,10.7c0,2.7-1.1,4.6-3.5,6c-6.3,3.6-12.5,7.2-18.8,10.8c-2.2,1.3-4.5,1.3-6.7,0
			c-6.3-3.6-12.6-7.2-18.9-10.9c-2.2-1.3-3.3-3.2-3.3-5.8c0-7.2,0-14.4,0-21.7c0-2.6,1.1-4.6,3.4-5.9c6.3-3.6,12.5-7.2,18.7-10.8
			c2.3-1.3,4.5-1.3,6.8,0c6.2,3.6,12.4,7.2,18.6,10.8c2.4,1.4,3.5,3.4,3.5,6.1C674.2,793.3,674.2,796.9,674.2,800.5z"/>
		<path fill="#FFBC06" d="M681.1,800.5c0-3.7,0-7.5,0-11.2c0-2.3,1-4.1,2.9-5.3c6.5-3.8,13.1-7.6,19.7-11.4c1.8-1,3.9-1.1,5.7,0
			c6.6,3.8,13.2,7.6,19.8,11.4c2,1.2,2.9,3.1,2.9,5.4c0,7.3,0,14.5,0,21.8c0,2.6-1.2,4.6-3.5,5.9c-6.3,3.6-12.5,7.2-18.8,10.8
			c-2.2,1.3-4.5,1.3-6.7,0c-6.3-3.6-12.6-7.3-18.9-10.9c-2.2-1.3-3.4-3.2-3.3-5.8C681.1,807.7,681.1,804.1,681.1,800.5z"/>
		<path fill="#FFBC06" d="M587.6,850.4c0,3.7,0,7.5,0,11.2c0,2.3-1,4.2-3,5.3c-6.4,3.8-12.9,7.5-19.4,11.2c-2.1,1.2-4.2,1.2-6.3,0
			c-6.4-3.7-12.7-7.3-19.1-11c-2.2-1.3-3.3-3.2-3.3-5.7c0-7.3,0-14.6,0-21.9c0-2.6,1.2-4.5,3.4-5.8c6.3-3.6,12.5-7.2,18.8-10.8
			c2.2-1.3,4.5-1.3,6.7,0c6.4,3.7,12.7,7.3,19.1,11c2.1,1.2,3.1,3.1,3.1,5.5C587.5,843.1,587.6,846.8,587.6,850.4z"/>
		<path fill="#FFBC06" d="M587.6,949.9c0,3.7,0,7.4,0,11.1c0,2.3-1,4.2-3,5.3c-6.5,3.8-13,7.5-19.5,11.3c-1.9,1.1-4,1.1-5.9,0
			c-6.6-3.8-13.2-7.5-19.7-11.4c-2-1.2-2.9-3.1-2.9-5.4c0-7.3,0-14.6,0-21.9c0-2.6,1.2-4.5,3.4-5.8c6.2-3.6,12.4-7.2,18.6-10.8
			c2.3-1.3,4.6-1.4,6.9,0c6.2,3.6,12.3,7.2,18.5,10.7c2.5,1.4,3.6,3.4,3.6,6.3C587.5,942.8,587.6,946.4,587.6,949.9z"/>
		<path fill="#FFBC06" d="M645.3,949.9c0,3.6,0,7.2,0,10.8c0,2.5-1.1,4.4-3.3,5.7c-6.3,3.7-12.7,7.4-19.1,11c-2.1,1.2-4.3,1.2-6.4,0
			c-6.4-3.7-12.8-7.4-19.2-11.1c-2.1-1.2-3.2-3-3.2-5.4c0-7.5,0-14.9,0-22.4c0-2.4,1.1-4.2,3.2-5.4c6.4-3.7,12.7-7.4,19.1-11
			c2.1-1.2,4.3-1.2,6.5,0c6.3,3.6,12.6,7.3,19,10.9c2.3,1.3,3.4,3.3,3.3,5.9C645.3,942.7,645.3,946.3,645.3,949.9z"/>
		<path fill="#FFBC06" d="M499.9,899.8c0,3.6,0,7.1,0,10.7c0,2.7-1.1,4.7-3.5,6.1c-6.2,3.5-12.4,7.1-18.5,10.7c-2.4,1.4-4.7,1.4-7,0
			c-6.2-3.6-12.4-7.2-18.6-10.8c-2.2-1.3-3.4-3.2-3.4-5.8c0-7.3,0-14.6,0-21.9c0-2.4,1.1-4.3,3.1-5.5c6.4-3.7,12.8-7.4,19.3-11.1
			c2-1.2,4.1-1.2,6.1,0c6.5,3.7,13,7.5,19.5,11.3c2,1.2,3,3.1,3,5.5C499.9,892.5,499.9,896.1,499.9,899.8z"/>
		<path fill="#FFBC06" d="M442.2,899.9c0,3.6,0,7.2,0,10.8c0,2.6-1.1,4.5-3.3,5.8c-6.3,3.6-12.6,7.3-18.9,10.9
			c-2.2,1.3-4.5,1.3-6.7,0c-6.2-3.6-12.4-7.2-18.6-10.8c-2.4-1.4-3.6-3.4-3.5-6.2c0-7.1,0-14.1,0-21.2c0-2.8,1.2-4.9,3.6-6.3
			c6.2-3.5,12.3-7.1,18.4-10.6c2.4-1.4,4.6-1.4,7,0c6.1,3.6,12.2,7.1,18.3,10.6c2.5,1.4,3.7,3.4,3.7,6.3
			C442.1,892.8,442.2,896.3,442.2,899.9z"/>
		<path fill="#FFBC06" d="M529,949.9c0,3.6,0,7.1,0,10.7c0,2.6-1.1,4.6-3.4,5.9c-6.3,3.6-12.5,7.2-18.7,10.8c-2.3,1.3-4.5,1.3-6.8,0
			c-6.1-3.6-12.3-7.1-18.4-10.6c-2.5-1.4-3.7-3.5-3.7-6.5c0.1-7.1,0-14.1,0-21.2c0-2.7,1.1-4.6,3.4-6c6.3-3.6,12.5-7.2,18.8-10.8
			c2.2-1.3,4.5-1.3,6.7,0c6.3,3.6,12.6,7.3,19,10.9c2.1,1.2,3.2,3.1,3.2,5.6C529.1,942.5,529,946.2,529,949.9z"/>
		<path fill="#FFBC06" d="M623.1,702.8c0-3.6,0-7.2,0-10.8c0-2.6,1.1-4.5,3.3-5.8c6.3-3.6,12.5-7.2,18.7-10.8c2.4-1.4,4.7-1.3,7,0
			c6.2,3.6,12.3,7.2,18.5,10.7c2.3,1.3,3.5,3.3,3.5,6c0,7.2,0,14.4,0,21.6c0,2.7-1.1,4.6-3.5,6c-6.2,3.6-12.4,7.2-18.6,10.8
			c-2.3,1.3-4.5,1.3-6.8,0c-6.3-3.6-12.5-7.2-18.7-10.8c-2.3-1.3-3.4-3.2-3.4-5.9C623.1,710,623.1,706.4,623.1,702.8z"/>
		<path fill="#FFBC06" d="M703.1,752.8c0,3.7,0,7.3,0,11c0,2.5-1.1,4.4-3.2,5.6c-6.3,3.7-12.6,7.3-19,11c-2.2,1.3-4.5,1.3-6.7,0
			c-6.3-3.6-12.6-7.3-18.9-10.9c-2.2-1.3-3.3-3.2-3.3-5.8c0-7.2,0-14.4,0-21.7c0-2.6,1.1-4.6,3.4-5.9c6.3-3.6,12.6-7.3,19-10.9
			c2.1-1.2,4.3-1.2,6.4,0c6.4,3.7,12.8,7.4,19.2,11.1c2.1,1.2,3.2,3.1,3.2,5.5C703.1,745.5,703.1,749.2,703.1,752.8z"/>
		<path fill="#FFBC06" d="M478,850.5c0-3.7,0-7.3,0-11c0-2.5,1.1-4.4,3.3-5.7c6.3-3.6,12.6-7.2,18.9-10.9c2.3-1.3,4.5-1.3,6.8,0
			c6.2,3.6,12.4,7.2,18.6,10.8c2.3,1.3,3.5,3.3,3.5,6c0,7.2,0,14.4,0,21.6c0,2.6-1.1,4.6-3.4,5.9c-6.2,3.6-12.4,7.2-18.6,10.8
			c-2.4,1.4-4.7,1.4-7.1,0c-6.1-3.6-12.2-7.1-18.3-10.6c-2.5-1.4-3.7-3.4-3.6-6.3C478,857.5,478,854,478,850.5z"/>
		<path fill="#FFBC06" d="M506.8,899.8c0-3.7,0-7.4,0-11.1c0-2.3,0.9-4.2,2.9-5.3c6.6-3.9,13.2-7.7,19.8-11.4c1.8-1,3.9-1,5.7,0
			c6.6,3.8,13.2,7.5,19.7,11.4c2.1,1.2,3,3.2,3,5.5c0,7.3,0,14.5,0,21.8c0,2.6-1.2,4.5-3.5,5.9c-6.2,3.6-12.4,7.1-18.5,10.7
			c-2.4,1.4-4.7,1.4-7,0c-6.2-3.6-12.5-7.2-18.7-10.8c-2.2-1.3-3.3-3.1-3.3-5.7C506.9,907.1,506.8,903.5,506.8,899.8z"/>
		<path fill="#FFBC06" d="M499.9,800.5c0,3.6,0,7.1,0,10.7c0,2.7-1.1,4.6-3.5,6c-6.3,3.6-12.5,7.2-18.8,10.8c-2.2,1.3-4.5,1.3-6.7,0
			c-6.3-3.6-12.6-7.2-18.9-10.9c-2.2-1.3-3.3-3.2-3.3-5.8c0-7.2,0-14.4,0-21.7c0-2.6,1.1-4.6,3.4-5.9c6.3-3.6,12.5-7.2,18.7-10.8
			c2.3-1.3,4.5-1.3,6.8,0c6.2,3.6,12.4,7.2,18.6,10.8c2.4,1.4,3.5,3.4,3.5,6.1C499.9,793.3,499.9,796.9,499.9,800.5z"/>
		<path fill="#FFBC06" d="M506.8,800.5c0-3.7,0-7.5,0-11.2c0-2.3,1-4.1,2.9-5.3c6.5-3.8,13.1-7.6,19.7-11.4c1.8-1,3.9-1.1,5.7,0
			c6.6,3.8,13.2,7.6,19.8,11.4c2,1.2,2.9,3.1,2.9,5.4c0,7.3,0,14.5,0,21.8c0,2.6-1.2,4.6-3.5,5.9c-6.3,3.6-12.5,7.2-18.8,10.8
			c-2.2,1.3-4.5,1.3-6.7,0c-6.3-3.6-12.6-7.3-18.9-10.9c-2.2-1.3-3.4-3.2-3.3-5.8C506.9,807.7,506.8,804.1,506.8,800.5z"/>
		<path fill="#FFBC06" d="M645.3,752.8c0,3.7,0,7.5,0,11.2c0,2.3-1,4.2-3,5.3c-6.4,3.8-12.9,7.5-19.4,11.2c-2.1,1.2-4.2,1.2-6.3,0
			c-6.4-3.7-12.7-7.3-19.1-11c-2.2-1.3-3.3-3.2-3.3-5.7c0-7.3,0-14.6,0-21.9c0-2.6,1.2-4.5,3.4-5.8c6.3-3.6,12.5-7.2,18.8-10.8
			c2.2-1.3,4.5-1.3,6.7,0c6.4,3.7,12.7,7.3,19.1,11c2.1,1.2,3.1,3.1,3.1,5.5C645.3,745.5,645.3,749.1,645.3,752.8z"/>
		<path fill="#FFBC06" d="M413.3,949.9c0,3.7,0,7.4,0,11.1c0,2.3-1,4.2-3,5.3c-6.5,3.8-13,7.5-19.5,11.3c-1.9,1.1-4,1.1-5.9,0
			c-6.6-3.8-13.2-7.5-19.7-11.4c-2-1.2-2.9-3.1-2.9-5.4c0-7.3,0-14.6,0-21.9c0-2.6,1.2-4.5,3.4-5.8c6.2-3.6,12.4-7.2,18.6-10.8
			c2.3-1.3,4.6-1.4,6.9,0c6.2,3.6,12.3,7.2,18.5,10.7c2.5,1.4,3.6,3.4,3.6,6.3C413.2,942.8,413.3,946.4,413.3,949.9z"/>
		<path fill="#FFBC06" d="M471,949.9c0,3.6,0,7.2,0,10.8c0,2.5-1.1,4.4-3.3,5.7c-6.3,3.7-12.7,7.4-19.1,11c-2.1,1.2-4.3,1.2-6.4,0
			c-6.4-3.7-12.8-7.4-19.2-11.1c-2.1-1.2-3.2-3-3.2-5.4c0-7.5,0-14.9,0-22.4c0-2.4,1.1-4.2,3.2-5.4c6.4-3.7,12.7-7.4,19.1-11
			c2.1-1.2,4.3-1.2,6.5,0c6.3,3.6,12.6,7.3,19,10.9c2.3,1.3,3.4,3.3,3.3,5.9C471,942.7,471,946.3,471,949.9z"/>
	</g>
</g>
<g id="alphabet">
	<g id="b" class="clickable">
		<title>B</title>
		<path fill="#333333" d="M142.2,119.1h114.6c62.3,0,105.9,27.9,105.9,81.5c0,26.1-12.6,52.7-36.2,66.2v0.9
			c35.7,10.9,48.8,42.7,48.8,70.2c0,68-56.6,92.8-118.5,92.8H142.2V119.1z M257.7,239.8c19.2,0,27.5-13.9,27.5-28.8
			c0-14.4-8.3-26.6-28.8-26.6h-37.9v55.3H257.7z M264.2,365.3c22.2,0,33.1-15.3,33.1-32.7c0-17.4-10.5-31.8-32.7-31.8h-46.2v64.5
			H264.2z"/>
		<path fill="#333333" d="M420.7,119.1H496v86.7c0,11.3-0.9,19.2-0.9,19.2h0.9c0,0,20.9-24,60.6-24c61,0,101.1,47.9,101.1,117.6
			c0,71-44.9,117.2-104.6,117.2c-41.4,0-61.4-25.3-61.4-25.3h-0.9c0,0,0.4,5.7,0.4,12.6v7.4h-70.6V119.1z M537.9,373.6
			c23.5,0,44-19.2,44-53.6c0-33.6-17.9-55.3-44-55.3c-22.7,0-44,16.6-44,55.3C493.9,347,508.2,373.6,537.9,373.6z"/>
	</g>
</g>
</svg>
