<?xml version="1.0" encoding="utf-8"?>
<!-- Generator: Adobe Illustrator 18.1.1, SVG Export Plug-In . SVG Version: 6.00 Build 0)  -->
<svg version="1.1" xmlns="http://www.w3.org/2000/svg" xmlns:xlink="http://www.w3.org/1999/xlink" x="0px" y="0px"
	 viewBox="0 0 768 1024" enable-background="new 0 0 768 1024" xml:space="preserve">
<g id="background">
	<rect fill="#ffffff" width="768" height="1024"/>
</g>
<g id="elements">
	<g id="zebra" class="clickable">
		<title>Zebra</title>
		<polygon fill="#FFFFFF" points="102,212.2 122.5,236.5 182.9,207.8 239,280.5 230,420.7 311,422 300.8,312.6 451.2,314.6 
			495.1,365.7 473.8,430.3 568,436.6 545.2,165.3 322.7,155 131.7,70.9 		"/>
		<path fill="#231F20" d="M406,178c-13.9-0.3-31.8,0.9-43.2,9.9C374.6,185.2,391.4,180.1,406,178z"/>
		<path fill="#231F20" d="M345.2,188.4c-0.2-0.6,5.5-3.9,6.1-3.8c-7.8-1.1-15.2,1.7-17.1,10c-0.7,3.1-1.6,13.8,1.5,16
			c4.2,2.9,7.9-11,9.7-13.9c2.8-4.4,8.8-8.8,18.2-12.5C352.8,183.6,346.3,191.1,345.2,188.4z"/>
		<path fill="#231F20" d="M169.8,182.5c-0.4-3-7.1-21-10.4-21c0.5,0,5,20,5.2,21.1c1,3.9,7.1,19.6,1.2,19.9
			c-10.5,0.5-2.1-25.7-8-30.3c-3.6-2.9-14.8,2.2-18.5,3.8c-8.1,3.5,3.5,3.4,6.5,3c7.6-0.9,10.8-1.2,12,7.4c0.5,3.6-1,7.5,0.1,11
			c0.5,1.6,1.7,3,1.9,4.6c0.3,1.8-0.3,3.2-0.4,4.8c3.5-0.5,11.6-2.9,11.8-6.7c0.1-1.5-1.3-5.8-1.5-7.3
			C169.3,188.9,170.3,186.1,169.8,182.5z"/>
		<path fill="#231F20" d="M176,157.3c-0.4-3-1.1-19.7-5.9-20.4c1.9,5.4,4.5,30.1,4.9,33.6c0.3,3,1.1,13,2.6,5.3
			C178.7,170.3,177,164.3,176,157.3z"/>
		<path fill="#231F20" d="M177.9,198.5c-0.5-3-2.5-8.5-4.6-10.9c0,4.2-1.3,12.2,0.2,12.9C174.1,200.8,176.7,199.4,177.9,198.5z"/>
		<path fill="#231F20" d="M129,184.5c0.1,2.2,21.4,2.4,21.1,0C149.9,182.7,128.9,182.3,129,184.5z"/>
		<path fill="#231F20" d="M151.3,192.5c-2.4-1.9-7.1-3.5-10.1-3.7c-5.7-0.3-14.9,0-13.2,2.8c1,1.7,7.7,0.7,13.4,1.1
			c6.8,0.5,14.3,8.5,15.2,15.7C158.2,207.6,158,197.8,151.3,192.5z"/>
		<path fill="#231F20" d="M152.8,212.3C152.6,212.7,152.9,212.1,152.8,212.3L152.8,212.3z"/>
		<path fill="#231F20" d="M145.8,155c0,0.3,10.9-0.7,9.8-3C154.5,149.7,145.8,154.6,145.8,155z"/>
		<path fill="#231F20" d="M273.2,246.8c-2.5-3.5-12.4,2.9-15.7,5.8c-5.6,4.9-17.8,13.9-13.3,23.1c-0.5-6.5,12.2-15.9,15.2-17.3
			C265.1,255.8,275.8,250.5,273.2,246.8z"/>
		<path fill="#231F20" d="M281.1,309.8c-9.2,6.5-21.3,4.3-27.8-3.1c-0.3,3.3,1,7.3,3.5,9.1c6.1,4.5,18.1,3.3,22.3,1.3
			C280,316.7,282,314.4,281.1,309.8z"/>
		<path fill="#231F20" d="M250.2,288.8c-0.7,0.5-1.6,2.5-1.1,3.1c2.7,3.1,13.4,0,16.4-0.2c4.6-0.2,13.9-1.6,17.6,1.6
			C282.1,287.5,257,283.9,250.2,288.8z"/>
		<path fill="#231F20" d="M255.7,319.8c-0.7-0.2-1.4,5.7-1,6.3c2.1,3.1,6.1-1.4,8.5-1.5c3.7-0.2,10.3,3.4,15.2,0.2
			C279.4,318.7,264.2,322.7,255.7,319.8z"/>
		<path fill="#231F20" d="M259.7,241.3c0.7-0.5,5.1-2.2,7.7-4.6c3.5-3.2,2-7.2,4.4-6.8c4,0.7,2.6,6.2,4.5,11c1.2,3,4.1,5.7,6.1,8.1
			c3.6,4.2,8.2,8,11.4,12.5c4.3-2.6-13.1-23.5-14.7-26.9c-2.5-5.3-2.5-11.8-1.4-17.7c1.8-9.2,4.4-22.2,9.2-30.3
			c1.6-2.6,9.3-8.3,9.4-11c0.2-5.2-9.2,2.1-10.6,3.2c-5.8,4.6-7.2,10.6-9.2,17.7c-2.8,9.8-4.5,20.1-9,29.4
			c-4,8.2-12.6,12.9-19.2,18.9c-4.8,4.3-12,10.2-8,21.2c1.4-0.8,2.5-7.8,5.1-11C248.7,251.2,252.1,246.5,259.7,241.3z"/>
		<path fill="#231F20" d="M187.5,117.1c2,0.6,0.3,4.8,1.6,3.7c1.2-1,1.1-8.6,0-9.9c-0.9-1-4.3-2-4.4-1c-0.3,2.4,2.4,0.4,3.2,2.1
			c-2.3,1-5.9,4.6-4.8,6.7C184,120.2,186,116.6,187.5,117.1z"/>
		<path fill="#231F20" d="M282.3,298c0-2.3-24.1-2.1-26.4-1.8c-7.3,0.8-5.7,3.9-0.7,5.9c6.5,2.7,18.1,3.9,17.6,0
			c-1.8-1.1-15.1-1.5-16.1-1.7c-3.4-0.9-1.4-2.8,4.1-2.3C264.6,298.4,282.3,303.4,282.3,298z"/>
		<path fill="#231F20" d="M504.8,272.5c-5.1,2.6-10.8,4-16.4,5.1c-8.3,1.6-33.4,4.3-23.9,17.3c3.9-6.1,12.6-7,19-8.1
			c4.8-0.8,27.1-5.2,34.9-13.3c1.8-1.9,5.5-4.2,7.4-13.4C518.9,262.6,507.1,271.3,504.8,272.5z"/>
		<path fill="#231F20" d="M536.4,238.6c0-0.1,0-0.1,0-0.2C536.3,238.5,536.3,238.6,536.4,238.6z"/>
		<path fill="#231F20" d="M501.2,225.3C501.2,225.3,501.2,225.3,501.2,225.3C501.2,225.3,501.2,225.3,501.2,225.3z"/>
		<path fill="#231F20" d="M501.2,225.3C501.3,225.3,501.5,224.9,501.2,225.3L501.2,225.3z"/>
		<path fill="#231F20" d="M501.3,225.2C501.3,225.2,501.3,225.2,501.3,225.2L501.3,225.2z"/>
		<path fill="#231F20" d="M501.2,225.3C501.2,225.3,501.3,225.3,501.2,225.3C501.3,225.3,501.2,225.3,501.2,225.3z"/>
		<path fill="#231F20" d="M513.5,428.5C513.5,428.5,513.5,428.5,513.5,428.5C513.5,428.5,513.5,428.5,513.5,428.5z"/>
		<path fill="#231F20" d="M513.5,428.5C513.5,428.5,513.4,428.5,513.5,428.5C513.5,428.5,513.5,428.5,513.5,428.5z"/>
		<path fill="#231F20" d="M513.5,428.5C513.5,428.5,513.5,428.5,513.5,428.5C513.5,428.5,513.5,428.5,513.5,428.5z"/>
		<path fill="#231F20" d="M513.5,428.5C513.5,428.5,513.5,428.5,513.5,428.5C513.5,428.5,513.5,428.5,513.5,428.5z"/>
		<path fill="#231F20" d="M498.4,422C498.4,422,498.4,422,498.4,422L498.4,422z"/>
		<path fill="#231F20" d="M497.8,421.3C497.7,421.3,497.8,421.3,497.8,421.3L497.8,421.3z"/>
		<path fill="#231F20" d="M498.3,421.9C498.3,421.9,498.3,421.9,498.3,421.9C498.3,421.9,498.3,421.9,498.3,421.9z"/>
		<path fill="#231F20" d="M498.2,421.9C498.2,421.9,498.2,421.9,498.2,421.9C498.2,421.9,498.2,421.9,498.2,421.9z"/>
		<path fill="#231F20" d="M495.6,421.8C495.6,421.8,495.6,421.8,495.6,421.8C495.6,421.7,495.6,421.8,495.6,421.8z"/>
		<path fill="#231F20" d="M271.6,399.2c-0.9,0.8-2,1.4-3.4,1.8c-4.9,1.5-13.7,1.4-17.1-3.3c-7.7,1.6-11.2,12.8-11.9,15.7
			c-0.6,2.4,0.3,5,2.5,5.1c2.8,0.2,6.8,0.9,9.5,1.2c3.2,0.4,4.8,1.5,8.1,0.8c1.1-0.2,3.5,0,4.9-1.5c2.4-2.1,3.1-6.7,3.6-9.9
			C268.2,408.5,271.5,401,271.6,399.2z"/>
		<path fill="#231F20" d="M294.2,408.8c0.4-3.3,0.5-14.5-2.2-16.3c-0.9-0.6-1.8,3.3-2.1,4.3c-0.8,2.4-3.3,2.5-5.4,3.1
			c-2.2,0.7-6.8,2.2-9.5-1.8c-0.3-0.4-7.9,13.8-6.7,19.6c0.7,3.3,5.2,3,8.1,3.1c3.9,0.1,17.2,1.6,17-4.4
			C293.8,414.5,294.4,410.7,294.2,408.8z"/>
		<path fill="#231F20" d="M279.9,279.7c1.8,0.5,7,2.5,10.2,7.3c3.1-3.3,3-8.2,2.3-13.1c-2.2,0.7-1.8,6-4.9,5.2
			c-2.9-0.7-5.5-2.4-8.6-2.9c-1.4-0.2-9.3-1.1-9.7-0.4C268.3,276.9,278.9,279.4,279.9,279.7z"/>
		<path fill="#231F20" d="M285.7,293.3c0,0.6,0,1.1,0,1.7c1.8-3.3,1.2-5.9,0.5-7.5c-2.5-5.9-16.2-8.4-22.6-9.1
			c-3.3-0.4-13-0.4-6.3,3.3c5.9,3.2,14.2,2.4,20.6,4.5C282,287.6,285.4,288.7,285.7,293.3z"/>
		<path fill="#231F20" d="M295.5,294.8c-0.3-0.8-6.5-3.6-6.7-1.1c-0.1,2.6-2.4,3-0.8,4.8c0.6,0.6,3.8,3.7,4.7,3.3
			C294.8,301.1,295.6,295,295.5,294.8z"/>
		<path fill="#231F20" d="M268.6,354.9c2.4-0.2,2.4-2.3,3.9-3.1c1-0.5,0.9-1.9-0.1-2.4c-3.1-1.3-13-0.6-17.4-3.3
			c-0.6,3.9,2.4,4.4,5.2,4.6c0.8,0.1,0.9,1.2,0.2,1.4c-2.5,0.9-5.2,2.3-4.4,3.8C257.5,358.7,266.5,355.1,268.6,354.9z"/>
		<path fill="#231F20" d="M269.2,263c8.9-5.1,17.2,1.5,21.9,9c0.8-2.9-3.7-8.6-5.1-10.7c-1.3-1.8-3-7.3-7.4-6.9
			c-3.8,0.4-6.1,2.3-7.5,3.5c-2.5,2.1-9,3.7-11.6,5.6c-1.3,0.9-14.3,12.2-11.7,15.8c2.7-4.7,11.6-6.8,16.3-7.4
			c6.8-0.9,22.2,6.8,22-0.2c-0.1-2.5-7.8-3.3-10.1-3.3c-3.2-0.1-6.6,1.7-9.9,1.1C259.4,268.5,265.8,264.9,269.2,263
			C269.5,262.8,267.9,263.8,269.2,263z"/>
		<path fill="#231F20" d="M291.9,273.5C291.9,273.5,291.9,273.5,291.9,273.5L291.9,273.5z"/>
		<path fill="#231F20" d="M527.8,242.3c-14.6,7.6-20,9.5-22.4,10.2c-13.1,3.8-26.2,7.6-39.3,11.5c-4.2,1.3-13.3,2.4-14.7,7.7
			c-0.4,1.5-0.5,10.1,5.2,13.3c-1.2-3.4-0.1-5.6,0.6-6.5c4.7-5.9,16.8-5.3,28.3-8c9.5-2.3,32.7-10.2,38.4-16.7
			C526.2,251.2,528.1,246.9,527.8,242.3z"/>
		<path fill="#231F20" d="M497.4,197.4c-21.8,2.2-46.5,13.1-46.5,13.1c-6.1,2.5-12.3,4.5-17.3,9c-4.3,3.9-7.5,8.7-10.9,13.4
			c-7.5,10.3-15.6,19.9-20.5,31.8c-2.4,5.9-4.2,18.5-4.2,18.7c-0.1,1.4-0.1,6.1,0,7.4c0.1,2.3-0.7,4-0.7,7c0.1,5.5,11.2,5.5,15,4.5
			c3.2-0.8,5.5-3.3,5.5-3.5c-4.7,0.9-5,0.9-7.1,0c-3.7-1.5-4.6-0.1-6.5,0c-4.3,0.3-3.7-6.4-3.1-8.5c1.1-3.8,6.5-16.2,8.6-20.2
			c6.7-12.8,16.7-22.9,28.5-31.1c12.4-8.6,26.4-16,40.3-21.8c13.7-5.7,29.5-11.1,44.1-5.3C522.6,211.9,519.2,195.2,497.4,197.4z"/>
		<path fill="#231F20" d="M397.9,215.3c-3.3,3.6-8.5,7.7-10.7,12c-2.2,4.3-1.5,9.5-2.3,14.1c-2.1,11.2-6.7,22.1-6.7,33.6
			c0,6.2,0.6,10.7,3.1,16.4c0.6,1.2,3,4.2,3,5.8c0,4.9,1.5,7.1,4.6,8.2c3.6,1.3,9.6,0.7,13.7-0.8c-3.1-2.3-12.2-2.1-13.2-2.5
			c-1.9-0.7-2.9-2.2-2.9-4c-0.1-4.6,0.8-7.6,0.5-10.3c-0.6-7.1-0.1-19,3.1-28.2c5.9-16.5,15.7-32.6,28-45
			c12.4-12.5,27.2-18.3,43.9-22.8c17.2-4.6,37.8-7.6,52.9,4.4c-8-10.8-24-15.6-37-16.4c0,0-31.7,1.8-50.6,14.1
			C408.5,206.3,397.9,215.3,397.9,215.3z"/>
		<path fill="#231F20" d="M357.8,305.3c0.2-0.6-9.7-4.2-11.8-6.4c-3.7-3.9-8-16.6-8.5-19.8c-2.1-14.2-2-28.6-3.3-42.9
			c-0.6-6.2-1.4-12.4-2.8-18.5c-1.4-6-4-11.7-4.3-17.9c-0.3-4.4,0.3-7.4,3.4-10.5c0.5-0.5,7.8-5.2,7.7-5.4
			c-2.1-5.5-12.7,5.4-13.8,2.2c-0.7-2,3.2-2.2,2.9-4c-0.5-3-8.1-0.9-9.3,0.7c-3.1,4.1-0.2,15,0.4,19.6c1.3,9.9,3.9,19.3,6.7,28.9
			c3.6,12.5,5.1,25,7,37.8c0.9,6,4.1,14.4,5.2,18.9c0.6,2.5,0.5,7,1.8,9c2,3,6,4.6,9.4,5.5C350.4,303.2,353.5,306.5,357.8,305.3z"/>
		<path fill="#231F20" d="M308.2,291.5c-1.1-3.2,1.4-6.8,1.2-10.1c0.1-6-2.8-15.7-3.9-24.1c-0.7-5.6-2.5-11.3-4.1-16.7
			c-1.5-5.2-4-10-5.5-15.2c-3.1-10.8-2.3-21.8,1.7-32.2c0.9-2.4,3.5-11,9.1-15.6c-2.8,0-5-2.3-6.1-1.8c-3.4,1.3-7,9.3-8.4,12.2
			c-4.3,8.8-6.8,19-6.8,28.9c0.1,10.6,4.9,18.9,9.9,27.8c2.7,4.9,4.7,10.4,6.5,15.7c0.9,2.6,5.2,22,2.8,26.7
			c-0.9,1.7-2.1,3.1-3.6,4.3c-1.5,0.7-3.2,0.7-5.3,1c0.4,0.9,4.9,1.1,9.4,2c4.3,0.9,7.5,2.7,11.5,2.9
			C312.8,294.5,309,293.7,308.2,291.5z"/>
		<path fill="#231F20" d="M343.5,303c-1.7-0.9-10.8-4.4-11.7-4.8c-3.8-1.8-5-6.3-5.6-10.3c-1.7-11.3-2.8-22.7-4.5-34
			c-2.1-13.7-8.1-26.5-10.1-40.2c-1-6.9,0-13.6,0.8-20.5c0.4-2.9,0.3-6.2,1.1-9c0.3-1.1,2.9-4.1,2.9-5c0,0.2-6.2-1.7-6.3-1.6
			c-1.6,0.5-2.1,3-2.7,4.4c-2.2,5.7-3.8,12-4.9,18c-2.1,11.7,1.4,23.1,5.3,34c4.2,11.8,8.1,23.5,11,35.7c0.9,3.8,6,16.4,3.5,22.2
			c-0.3,0.7-2.8,2.1-1.8,4.1C322.7,300.6,337.6,302.8,343.5,303z"/>
		<path fill="#231F20" d="M353,225c1-9.1,2.9-17.9,10-24.2c10.7-9.4,26.8-12.9,40.3-16.7c11.4-3.2,22.8-6.5,34.2-9.6
			c-0.8-3.9-51.3,9.6-56.2,11c-7.9,2.2-17.1,3.9-24.4,7.6c-7.5,3.8-10.6,13.7-13.2,21.2c-3.3,9.5-2.4,20.1-1.7,29.9
			c0.6,9.1,1.2,18.5,2.9,27.5c1.1,5.9,3.6,11.5,5.2,17.2c0.3,0.9,1.9,7.5,3.5,9.9c2.9,7.3,15.5,9,20.2,8.7
			c-5.9-5.1-12.7-4.1-17.2-9.9c-1.1-1.4-5.2-12.4-5.5-15.5c-1.1-9.7-0.9-19.7-0.6-29.4C351,243.4,352,234.2,353,225z"/>
		<path fill="#231F20" d="M446,173.6c-8.7,2.3-17.3,5.1-26,7.8c-9.5,3-18.7,6-27.7,10.3c-10,4.8-30.2,13.6-29.9,27.2
			c0.1,3.6,2.3,6.7,2.3,10.3c-0.1,4.6-2.4,9.4-3,14.1c-1.3,10.8-2.6,22.8-1.5,33.6c0.8,7.8,3.4,13.4,7,20c0.8,2.4,1.9,4.7,3.4,6.3
			c2.1,2.3,5.2,3.1,8.2,3.8c0.8,0.2,5.3,1.1,8.1-0.8c0-0.1-6.9-1.7-9.4-3c-5.5-2.9-8.4-8.2-8.8-9.5c-2.1-6.4-1.5-11.7-1.4-16.6
			c0.1-4.5,1.3-8.9,2.1-13.3c0.7-4-0.1-7.4,0-11.2c0.2-3.8,2.3-7.7,3.6-11.2c1.7-4.5,2-8.3,2.7-13.1c1.2-8.9,8.5-15.6,14.6-21.7
			c8.5-8.4,18.4-13.6,29.3-18.3c11.3-4.9,26.6-12.1,39.2-11.5c5.3,0.3,10.3,1.3,15.8,1.1C465.3,174.3,455.7,171.1,446,173.6z"/>
		<path fill="#231F20" d="M440.2,276c-4.2-0.4-8.6,0.8-11.5,4.2c-0.2,0,7.8-1.2,8.4,1.8c-14.2-0.1-10.6,9.3-20.1,13.8
			c1.2,0.8,2.7,1.5,4.3,1.1c4.8-1.2,11-9.6,16.6-9.9c3.9-0.2,10.3-1.5,15.6,0.1C452.8,286,445.8,276.4,440.2,276z"/>
		<path fill="#231F20" d="M527.5,222.6c-1.9,1.5-3.4,0.6-6.1,0.2c-14-2.2-28.4,5.9-41.2,10.9c-26.2,10.2-63.9,21-64.3,58.6
			c0.6-1.1,4.7-10.8,6.5-14c2.3-4.1,4.9-10.3,8.7-13c2-1.4,3.8-2.4,6.2-0.9c2.3,1.4,0.4,3.8,1.3,5.6c0.8,1.5,3.9,1.2,7.3,4.8
			c1.4-4.7-6.1-5.4-4.1-10.5c1.8-4.6,8.6-5.8,12.6-7.2c10.8-3.8,21.7-7.5,32.3-11.6c12.2-4.8,25.8-11.9,38.6-14.3
			c6.2-1.9,6.7-11,5.9-12.2c0,0-1.4-4.8-6.1-5.9C528.8,218.3,529,221.4,527.5,222.6z"/>
		<path fill="#231F20" d="M513.7,302.2c4.1-4.3,5.1-7.6,4.6-10.4c-4.1,5.1-13.1,9-14.5,9.6c-8,3.8-24.2,1.9-26.2,7.6
			c-1.4,3.8,1.3,5.8,3.6,7.7c1.8-1.7,12.6-5.7,14.5-6.3C498.8,309.4,507.5,308.6,513.7,302.2z"/>
		<path fill="#231F20" d="M520.2,280.1c-7.1,5.1-17.6,10.9-24.2,12.2c-5.7,1.1-24.8-0.7-25.9,6.5c-0.5,3.2,2.5,5.7,4,7.1
			c2.5-3.5,12.6-3.9,20-6.5c3.2-1.1,12.6-4,17.4-6.8C514,291,519.5,288,520.2,280.1z"/>
		<path fill="#231F20" d="M503.1,314.8c-5.3,2.7-15,0-18.7,4.5c-1.3,1.6,1.1,4.4,3,4.9c3.6,1,11.3-1.2,14.8-2.7
			c4.4-1.8,10.2-5.2,15.1-11.6c2.2-2.9,1.4-8.8,1.5-10.6C518.7,299.4,511.1,310.8,503.1,314.8z"/>
		<path fill="#231F20" d="M510.8,326.1c2.3-3.1,5.4-3.2,7.6-6.3c1-1.5,0.5-6.3,0.3-6.8c-5.4,6.2-12.8,11-17.3,12.8
			c-2.4,0.9-9,2.4-11.9,1c-0.4,1.2,3.9,4.7,4.1,4.9c-0.1-0.1,10.3-0.6,13.4-2.1C508.2,329.1,510.1,327.1,510.8,326.1z"/>
		<path fill="#231F20" d="M514.6,325.6c-1,1.5-2,5.1-3.5,6c-3.2,2.2-15.3,2-15.3,3.1c0,0.9,3.7,3.6,5.4,3.5
			c13.9-0.9,15.5-6.8,16.8-8.3c1.5-1.9,0.8-7.6,0.9-8.4C518.1,322.5,515.4,324.3,514.6,325.6z"/>
		<path fill="#231F20" d="M505.7,343.2c0.6,0,11.3-2.8,13.7-5.3c0.6-0.6,1.2-4.1,0.1-6.3c-2.6,3.4-7,6.4-8.1,7.1
			c-2.2,1.3-9.9,1.2-10.7,1C501.1,341.4,503,343.2,505.7,343.2z"/>
		<path fill="#231F20" d="M508.1,347.5c0.3,0,10.2-1.7,12-4.4c0.6-0.9,0.7-2.3-0.1-4.2c-3.2,5.1-12.4,4.5-15.1,5.9
			C504.9,346.4,507.3,347.6,508.1,347.5z"/>
		<path fill="#231F20" d="M511.5,353.1c0.2,0,7-0.8,9-3c0.7-0.7,0.6-3.2,0-5.1c-3,3.6-9.1,3.5-11.1,4.9
			C509.5,351.5,510.9,353.2,511.5,353.1z"/>
		<path fill="#231F20" d="M515.1,357.6c1.7,0.4,5.7-0.7,6.5-1.8c1.2-1.9,0.3-3-0.1-4.3c-1.9,1.5-5.6,3.1-8.7,3.4
			C512.8,355.9,513.9,357.3,515.1,357.6z"/>
		<path fill="#231F20" d="M517.8,362.9c1.7,0.4,5.1-0.7,6.2-1.5c1.1-0.8,0.4-4-0.8-5c-1.9,1.4-4.6,3.2-7.7,3.5
			C515.5,360.9,516.6,362.6,517.8,362.9z"/>
		<path fill="#231F20" d="M514.1,365.4c-1.3,1-5.1,1.5-6.2,0.7c-1.8-1.2-2.8-2.7-3-4.1c2.2,0.7,6.5-0.1,9.2-0.9
			C514.6,362,515,364.7,514.1,365.4z"/>
		<path fill="#231F20" d="M514.9,371.6c-1.3,1-5.5,0.8-6.8,0.5c-1.3-0.3-1.9-3.5-1.3-4.9c2.1,0.5,5.2,1.2,7.9,0.3
			C515.1,368.6,515.8,371,514.9,371.6z"/>
		<path fill="#231F20" d="M526.2,364.2c-2-0.7-5.2,0.8-6.7,1.6c-0.7,0.4-1.7,3.5-0.2,4.2c2.7,1.2,5.6-0.5,9.2-0.7
			C528.7,367.8,527.5,364.6,526.2,364.2z"/>
		<path fill="#231F20" d="M528.8,371.8c-2-0.5-7.2,0.3-8.7,0.8c-0.7,0.9-0.7,2.5-0.1,3.7c2.7,0.9,6.8,0,10.4-0.1
			C530.5,375.2,530.1,372.8,528.8,371.8z"/>
		<path fill="#231F20" d="M530.4,378.7c-2-0.5-8.4-0.7-9.9-0.2c-0.7,0.9-0.7,3.4-0.2,4.6c2.7,0.9,7.8,0.4,11.4,0.4
			C531.8,382.5,531.7,379.7,530.4,378.7z"/>
		<path fill="#231F20" d="M531,385.6c-2-0.4-9.1-0.1-10.5,0.1c-0.6,0.5-1.3,2.5-0.8,3.2c2.7,0.6,7.9-2.1,12.1,0
			C531.8,388.4,532.2,386.2,531,385.6z"/>
		<path fill="#231F20" d="M523.8,394c2.2-0.5,5.7,0.3,9.2,1.8c0-0.5-0.4-4.8-1.7-5.4c-2-0.4-8.3-0.6-11.5,0.7c-1.1,1-1.5,3.7-1,4.4
			C519.7,395.7,522.3,394.1,523.8,394z"/>
		<path fill="#231F20" d="M505.4,380.2c2-0.4,8.1-0.1,9.5,0.5c0.6,1,0.4,3.5-0.1,4.7c-2.6,0.7-7.4-0.1-10.9-0.4
			C503.9,384,504.2,381.2,505.4,380.2z"/>
		<path fill="#231F20" d="M504.1,387c2-0.2,7.9,0.7,9.3,1c0.6,0.5,1.1,2.7,0.5,3.3c-2.6,0.4-7.4-2.7-11.5-0.8
			C502.3,390,502.8,387.5,504.1,387z"/>
		<path fill="#231F20" d="M508.9,396.7c-2-0.7-4.9-0.4-8.3,0.8c0-0.6,0.8-4.9,2-5.4c2-0.2,8,0,11,1.5c1,1.1,1.2,3.9,0.6,4.5
			C513.3,398.2,510.3,396.8,508.9,396.7z"/>
		<path fill="#231F20" d="M528.5,306.6c-1.4-3.5-3-6.8-3-10.6c0-6,2.6-11.8,2.6-17.8c0-3.1-1.7-8.7-2.3-11.6
			c-0.5,1.8-6.2,25.1-5.6,36.1c0.5,9,0.3,23.6,2.4,32.3C523.9,326.4,527.5,315.3,528.5,306.6z"/>
		<path fill="#231F20" d="M537.2,259.2c-1.1-5.1-4.1-9.5-6-14.3c-0.5,4.4-2.5,10.7-2.7,19.2c-0.1,6,1.6,12.7,1.4,17
			c-0.2,4.4-2.8,11.5-2.2,17.5c0.6,5.5,3.7,10.2,5.3,15.4c1,3.3,1.1,24.5,1.2,30.7c0,1.6,0.8,7,1.1,7c1.9,0.4,1.9-19.5,1.9-33.7
			c0-0.1-0.1-0.1-0.1-0.2c-0.6-9.5-4.5-17.8-4-27.5c0.2-4.5,1.3-8.6,2.1-13C535.8,274.3,537.8,262.1,537.2,259.2z"/>
		<path fill="#231F20" d="M539.3,308.2c-0.3-3.4-1-6.8-1.1-10.4c0-0.8,1.1-10.5,0.7-14.2c-0.5-4.1,0.2-12-0.5-18.8
			c-0.7,2.7-1.3,10.1-1.8,12.8c-0.9,5.3-2,10.3-2.2,15.6c-0.2,6.2,4,19.7,3.7,29.1C541.4,315.3,539.5,309.5,539.3,308.2z"/>
		<path fill="#231F20" d="M532.6,340.5c-0.1-5.8,1.3-22.9-2.9-30.9c-2,16.2-8,25.5-7.1,37.5c0.5,6.7,8.1,20.1,10,24.4
			C532.5,364.8,532.7,342.5,532.6,340.5z"/>
		<path fill="#231F20" d="M545.1,259.6c-0.4,4.3-0.4,8.5-0.4,12.9c0.1,9-3.3,16.5-5.3,25.1c-0.1-1.7,0.1-3.4,0.1-5.1
			c0-1.2,0.3-2.3,0.4-3.5c0.3-3.8-0.1-7.6-0.3-11.4c-0.4-6.4,0.9-13.5-0.7-19.7c-1.8-6.9-7.9-12.1-7.2-19.3c0.9-9.9,2-15.5,2.1-15.9
			C542.3,233.4,545.5,255.3,545.1,259.6z"/>
		<path fill="#231F20" d="M535.2,405.4c-0.5-2.3-2.7-6.3-4.6-7.5c-2.2-1.3-6.6-0.9-9.5,0.4c-0.4,0.2-2.6,0.5-3,0.7
			c-0.9,0.4,1.2,1.6,2.1,1.8c1.6,0.4,3.2-0.1,4.8,0c1.8,0.1,3.6,0.7,5.3,1.5c-5,0.5-6.6,1.9-9.9,2.1c-1.2,0.1-2.7-1-3.5-1.8
			c0.2,0.9,0.3,1.8,0.2,2.8c-0.2,1.8-0.2,3.7-0.5,5.5c-0.3,2,3.3,2,2.2,4.2c-3.6,1.5-6.5,4.4-7.2,10.9c-0.1,1.1,0.4,1.9,1.3,2.3
			c3.2,1.3,6.6,1.1,10.1,0.9c1.9,0.1,3.8,0,4.9-0.1c6.3-0.2,8.4,1.3,8.9-6.2C537.3,417,536.3,411.1,535.2,405.4z"/>
		<polygon fill="#231F20" points="498.6,413.6 498.6,413.6 498.6,413.6 		"/>
		<path fill="#231F20" d="M514.1,399.4c-7.2,2.9-13.2,0.7-13.4,0.7c-3-0.1-3,4.4-3,4.5c0.7,2.4,11.4,0.5,11.3,0.6
			c-2.1,1.4-6.5,2.6-9.1,2.5c-0.8,0-4.8-0.5-5.6-0.9c-0.1,1.4-1.1,2.9-1.2,4.3c-0.4,1.1,6.4,2.4,6.2,3.5c-2.4,0.4-8.5-0.2-9.9,1.8
			c-0.6,0.9-2.8,4.1-3,5.4c-1.5,2.3-3,4.6-0.8,6.6c2.9,1.1,10.2,0.6,13.3,0.2c2.9-0.4,7.7-0.3,10.3-1.9c0.9-0.5,0.1-2.6,0-3.5
			c2-3.2,2.8-7.7,3.8-11.3c0.9-3.2,0-5.6-0.5-9.1C512.7,402.7,514.7,400.1,514.1,399.4z"/>
		<path fill="#231F20" d="M518.5,265.3C518.5,265.3,518.5,265.3,518.5,265.3C518.5,265.3,518.5,265.3,518.5,265.3z"/>
		<path fill="#231F20" d="M177.3,120c-3.2-5.2,0.1-10.3-2.6-15.2c-0.5,3-0.6,6.4-4.9,9c0-0.4-3.1-2.3-3.3-2.2
			c-0.5,0.5-0.3,4.5-3,1.7c-1.2-1.2-0.4-7.7,0.4-9c5.1-8.3,5.4,6.2,7.1,6.2c2.3,0-0.7-9.4-1.9-10.4c-5-4.2-7.7,2.4-8.5,6.5
			c-0.5,2.5,0.9,6.1,0.2,8.3c-0.5,1.6-2.9,3.3-4.1,4.4c-0.7,0.6-7.6,6.8-8.5,5.3c1.3,2.4,8.8,2.4,11.2,2.9c-2.6,2.5-5,5.7-7.2,8.6
			c-2.4,3.2-3.9,4.8-6.5,7.3c-3.3,3.2-6.1,6.6-7.6,10.3c-2,4.9-4.6,9.5-7.3,14c-2.4,3.9-5.2,9.1-8.2,12.6c5.1-1.9,8.6-6.7,11.6-11.4
			c2.4-3.7,6.4-13,7.5-15.1c0.5,4.1-1,10,4.3,10c4.9,0,11.3-4.3,8.9-6.9c-1.8-2-7.4,1.1-9.4-0.4c-3.3-2.6-0.3-7.9,1.8-9.2
			c0.1,2.5-2.1,5.4-1,5.8c1,0.3,3.1-5.9,4-6.4c-0.3,0.2-2.5,7.3,2.4,3.1c3.5-3.1,5-9.1,6.1-13.4c1,4.9-1.8,11.7-1.7,17.1
			c0.2,6.3-0.4,11.3-7.1,13.6c-5.1,1.8-9.6,0.4-13.8,4.3c-1.9,1.8-6.8,7.2-6.8,10c3.6-2.5,5.8-5.8,9.3-8.3c3.3-2.5,6.2-3.1,10.1-3.6
			c7.9-1,9.6-4.5,10.6-11.6c0.3-2.4,3.9-28.4,4.2-28.3c0.9,0.5,1.6,7.3,1.7,7.9c0.2,1.4,1.7,4.7,1.7,4.8c0-5.9,4.3-16.7-4.2-19
			c1-0.8,3,1.4,4.5,0.4c0.9-0.6,1.6-5.4,1.9-5.5c1.7-0.4,3.3,3.8,2.1,4.9C172.4,122,177.9,121.5,177.3,120z M151.1,144.9
			c-0.2-4.9,3.2-9.8,6.6-13C157.1,135.8,153.9,143.5,151.1,144.9z"/>
		<path fill="#231F20" d="M289.2,172.7c-4.9-1.1-10-4.5-9.1-7.1c0.7-2,1.3-2,4.4-3c-4.4-2-8.4,0.2-9.6,0.9c4.1-2.6,6.1-5,5.6-9.5
			c-2,0.7-4-3.9-3.4-7.2c-0.4,0.2-5.9,3.6-6,2.7c-0.3-1.7,1.9-1.8,3.4-3.2c0.7-0.6-2.3-1-2.9-1.4c-0.4-0.3-1.5-2.6-2.9-2.7
			c-3.9-0.4-4.7,5.6-7.2,4.7c0,0,0.6-4.6,4.6-6.2c-7.6-6.2-16.3-0.9-16-0.5c0.5-3.3,2.6-4.1,5.5-5.1c-4.7-4.3-9,1.1-10.9,0.5
			c-2.7-0.7,4.3-4.9,4.5-4.9c-3.2-1.1-3.9-2.2-7-1c-1.1,0.4-5,3.9-5,3.9c-1.7-1,5.2-5.9,5.8-6.1c-2.6-1.6-5.3-3.1-8.4-3.1
			c-2,0-9.4,4.1-9.9,3.8c-2.2-1.1,7.2-5.5,7.5-5.6c-2.7-1.3-5.3-4.3-8.1-4.3c-1.9,0-6.5,5.1-7.1,4.8c-1.8-0.7,4.7-5.9,5.2-6.2
			c-4.1-1-8.5-3.6-14.4,1.3c1-2.3,2.8-4,4.9-5.1c-1.8-0.9-3.5-1.4-5.6-1.5c-1.7,0-6.3,3-6.6,2.9c-0.9-0.3,1.9-3.2,1.8-3.2
			c-3.6,0-3.7-0.4-5.7,2.5c-0.4,0.6-2.5,6.1-2.5,6c-2.1-5.2,2.8-10,1.2-15.3c-1.3-4.4-4.3-7-9-5.1c-3,1.2-7.3,6.6-8.3,9.9
			c-0.4,1.5-0.5,10.6,2.3,10.2c-0.6,0.1,3.8-28.9,12.7-16.3c2.9,4.1-1.5,27.2-9.2,24.2c1.1-1.4,2.7-3,3.5-4.6
			c-1.9-0.2-4-0.2-5.6,0.2c0.2,0,1.3,2.3,0.9,2.4c0.2-0.1-8.7-4.3-7.7-1.4c0.7,2,5.9,1.2,4.1,5.2c-1.6,3.4-4.2-1.1-5.8-0.2
			c-2.5,1.5,5.6,4,6.1,4c-0.5,1.8-2.2,5-4.2,5.6c3.1,3.8,4.3-2,5.6-3.8c2.1-2.9,2.5-3,2.2,0.9c-0.3,3.4-2.8,6.9-3.5,10.4
			c-0.6,3.2-0.5,6.4-0.1,9.6c0.9,6.1,2.6,12.1,3.8,18.2c0.9,4.7,3.5,13.1,1.5,17.8c-2.3,5.4-4.1-2.1-5.7-5.3c-2.4-4.7-4.6-7.9-6-13
			c-1.6-5.8-3.6-11.6-4.7-17.5c-0.2-0.9-1.9-12.7-1.4-12.6c-1.8-0.6-3.5,8.5-3.6,9.6c-0.7,7.1,3.1,12.9,6.3,18.9
			c4.5,8.3,8.9,17,11.2,26.2c0.8-0.4,5.3-3.1,7.7-1.7c0-13.3-5.4-25.6-6.3-38.8c-0.4-5.9,0-11.8,1.6-17.4c0.5-1.8,3.1-11.7,6.2-11.4
			c2.1,0.2-3.6,12.8-3.9,13.9c-1.8,6.1-1,13,0,19.1c0.9,4.9,3.9,14.4,3.3,20.5c6.4-10.6-2.5-25.9-0.2-37.5c0.7-3.6,5.4-26.6,12-23.1
			c-0.3-0.2-8.4,24.7-8.7,27.1c-0.6,4.2,0.5,5.4,3,1.2c3-5.2,2.8-11.8,5.4-17.1c1.2-2.5,8-10.2,8.9-4.5c0.6,3.4-5.8,13-7.5,16.1
			c-5.1,9.7-9.2,17.5-9.7,28.7c-0.2,4.6,0,9.2,0.1,13.8c0.2,3.7-0.5,9.1,0.5,12.6c0.1-15.5,5.1-31.4,10.9-45.7
			c2.3-5.6,4.3-11.9,7.3-17.1c0.5-0.9,7.8-9.2,9.6-7.8c0.9,0.8-14.3,33.9-15.6,37.5c-2.2,6.3-3.8,12.8-5.4,19.2
			c-1.1,4.7-2.3,9.5-2.9,14.3c-0.2,1.7-0.6,3.5-0.5,5.2c0.1,1.6,2.9,7,3.7,8c-0.4-18.2,7.6-32.2,17.6-46.6
			c2.1-3,17.8-35.8,23.7-27.4c2.3,3.4-11.2,17.3-12.8,20c-5.1,8.2-10.7,16.2-14.9,24.8c-4,8.1-6.7,17-7.8,26
			c-0.5,3.8-0.5,6.7,1.5,10c1.5,2.5,5,5.2,5,8.4c0-6.2-0.3-12.2,1.6-18.2c1.9-6.1,5.3-11.8,7.9-17.7c3.2-7.3,6.6-14.4,10.5-21.3
			c2.1-3.8,12.5-24.6,19.7-27.5c1.1-0.4-0.6,2.9,0.3,3.4c1.2,0.7,3.7-0.9,2.7,1.5c-3.4,7.7-15.4,21.8-17.2,25
			c-6.2,11.3-10.5,24.5-14.9,36.6c-3.7,10.1-7.5,19.9-0.7,29.2c-0.1-10.4,3.8-13,6.8-20.7c3.8-9.8,9.4-18.6,12.8-28.6
			c2.3-6.9,4.6-13.7,7.7-20.3c2.2-4.7,6.7-16.1,13.3-15.8c-0.6,0-1,3.2-1.6,3.2c2.4,0,1.3-1,5.4-1.5c-7.1,7-15.1,25.3-21.8,40.2
			c-3.9,8.7-9.4,16.7-13.5,25.4c-2.8,5.8-9.4,19.4-3.5,24.8c-1.3-1.2,4.8-11.9,5.3-13.1c3.6-7.7,7.4-15.3,11.1-22.9
			c8.5-17.3,13.8-38.6,30-50.5c-1.1,0.8-0.8,6.5-2.2,6.5c0.2,0,2.3,0,2.2-0.6c0.8,4-8.9,10.1-11.1,13.4c-6.1,9.1-9.9,20.8-13.8,30.9
			c-3.4,8.7-6.6,17-10.9,25.3c-3.9,7.5-8.5,15.1-4.9,23.2c1.9-15.7,20-23.3,28.4-35.1c5.8-8.1,7.6-18.2,10.5-27.5
			c1.4-4.5,2.9-9.8,5.8-13.5C281.9,177.6,289.2,172.7,289.2,172.7z M208.5,170.6c-4.3-2.7,12.6-36.6,19.9-36.6
			C227,134.1,210.6,167.5,208.5,170.6z M277.7,174.5c-0.8,3-6.9,9-8.1,11.8c-3.7,9-5.5,18.7-9.5,27.6c-2.7,6-5.9,12.2-10,17.4
			c-2,2.6-7.1,8.8-6.8,2.4c0.3-5.3,5.4-12,7.8-16.4c2.6-4.8,5.4-9.4,7.3-14.5c2.8-7.5,4.4-17.9,10.1-23.7
			C269.8,177.8,278.5,171.7,277.7,174.5z"/>
		<path fill="#231F20" d="M300.8,312.6c-0.1,0-0.1,0.2,0,0.2S300.9,312.6,300.8,312.6z"/>
		<path fill="#231F20" d="M515.3,377.6c0,0-8.6,1-9-0.4c-0.4-1.4-1.2-3.3,0-3.8c1.2-0.5,8.9,0.3,9.2,0.8
			C515.7,374.6,516.1,376.9,515.3,377.6z"/>
		<path fill="#231F20" d="M512.8,359.1c0,0-0.9-3.6-2.1-3.6s-7.7,1.2-7.6,1.8c0.1,0.6,0.9,2.5,1.8,2.8
			C505.9,360.4,512.2,359.8,512.8,359.1z"/>
		<path fill="#231F20" d="M502.3,354.5c0.2,0.9,6.6,0.3,6.6-0.8s-1.2-3.3-2-3.5c-0.8-0.1-5.4-0.1-5.5,1.1
			C501.3,352.7,502.2,354.1,502.3,354.5z"/>
		<path fill="#231F20" d="M505.6,348.7c0.3-0.6-2.3-3.1-2.6-3.1c-0.3,0-4.4,0.5-4.4,1.4c0,0.9,1,2.8,1.6,2.9
			C500.9,349.9,505.3,349.4,505.6,348.7z"/>
		<path fill="#231F20" d="M501.4,343.7c0,0-1.9-3.9-2.7-4.3s-3,1-3.1,2c0,0.5,1.9,4.3,2.2,4.1C498.2,345.3,500.8,344.5,501.4,343.7z
			"/>
		<path fill="#231F20" d="M496.5,337.8c0,0-1.4-3.1-2.2-3.5s-2.8,1-2.6,1.4c0.3,0.5,2,3.6,2.4,3.4
			C494.4,338.9,495.8,338.7,496.5,337.8z"/>
		<path fill="#231F20" d="M493,332.7c0,0-2.2-2.7-3-3.1s-2.8,0.6-2.6,1c0.3,0.5,2.6,3.4,2.9,3.2C490.7,333.7,492.3,333.5,493,332.7z
			"/>
		<path fill="#231F20" d="M488.8,328.4c0,0-2.9-4-3.7-4.4s-0.4,1.7-0.2,2.1c0.3,0.5,1.7,3.1,2.1,2.9
			C487.4,328.9,488.2,329.3,488.8,328.4z"/>
		<path fill="#231F20" d="M282,304.5c0,0-6.4,2.2-11.7,2.6c-3.6,0.3-17.4-3.4-17.4-3.4s7.8,7.2,16.2,6.6
			C277.5,309.6,282,304.5,282,304.5z"/>
		<path fill="#231F20" d="M255.7,330.1c-1.8,0.5-1.1,3.6,0,3.9s18.2,1.2,19.3,0c1.1-1.2,2.9-4.1,1.1-4.9S258.3,329.4,255.7,330.1z"
			/>
		<path fill="#231F20" d="M255.7,335.9c-1-0.3-1.4,3.1-0.7,3.4s7.4-0.5,8.6-0.5s8.5,2.7,9.9,1.8c1.4-0.9,3.3-3.4,1.7-3.9
			S257.4,336.5,255.7,335.9z"/>
		<path fill="#231F20" d="M256.5,342.1c-1.2,0.3-1.2,2.2,0.2,2.9c1.4,0.7,12.9,3.2,14.8,2.4c2-0.8,4.7-3.9,2.8-4.5
			c-1.9-0.6-7.7,0.4-9.6,0.3C262.9,343,258.2,341.7,256.5,342.1z"/>
		<path fill="#231F20" d="M255.9,359c0,0,0.7,1.6,3.9,2.2c3.2,0.6,10.5,1.3,11.1,0c0.7-1.3,2.1-4.7,0.5-5.1c-1.5-0.4-5.5,1-7.5,1.7
			C262,358.5,257.8,359.2,255.9,359z"/>
		<path fill="#231F20" d="M256.6,363.1c0,0-1.3,2.9-0.7,3.4c0.7,0.5,4.1,1.1,6.8,1.4c2.7,0.3,7.2,0.6,7.7,0s0.5-4,0.5-4
			s-5.5,0.6-7.6,0C261.2,363.4,258.4,363.9,256.6,363.1z"/>
		<path fill="#231F20" d="M256.2,369c-1.5,0-1,3.2,0.5,3.8s10.6,1.3,12.4,0.8c1.8-0.5,3.1-2.2,1.9-2.7S258.3,369.1,256.2,369z"/>
		<path fill="#231F20" d="M275.4,387.1c-1.6,1.6-0.4,3.6,1,4.2c1.5,0.6,5.5,2.4,7.3,1.8s8.3-4.1,7.1-5.9c-0.4-0.6-5,1.6-8.6,1.3
			C279.1,388.3,276,386.4,275.4,387.1z"/>
		<path fill="#231F20" d="M275.7,381.4c-1.5,1.6-0.4,3.6,1,4.2s5.1,2.4,6.8,1.8c1.7-0.5,8.5-2.3,7.3-4.1c-0.4-0.6-5.4-0.1-8.8-0.4
			C279.2,382.6,276.4,380.7,275.7,381.4z"/>
		<path fill="#231F20" d="M255.9,375c0,0-1.4,1.5,1.6,2.7c3,1.3,10.7,1.5,12.5,0.4c1.8-1.1,1.5-3.5,1.5-3.5S259.6,376.1,255.9,375z"
			/>
		<path fill="#231F20" d="M253.2,394.1c0,0,0.3,3.5,2.7,4.4c4,1.6,10.5,2.5,15.1-0.7c1.2-0.8,0.6-4.2,0.6-4.2s-5.2,2.9-8.6,2.1
			S255.8,395.7,253.2,394.1z"/>
		<path fill="#231F20" d="M255.3,389c0,0-1.5,5.1,3.7,5.3c5.2,0.2,11.2-0.6,12-2.2s0-3.8,0-3.8s-4.7,2.3-7.4,2.5
			C260.9,390.9,257.4,389.4,255.3,389z"/>
		<path fill="#231F20" d="M255.8,385.7c0,0,2,3.7,6.7,3.3c4.7-0.5,8.6-2.7,8.6-2.7s1.8-3.6,0-3.3c-1.8,0.3-6.7,2.7-8.6,2.1
			c-1.8-0.5-6.5-1.1-6.8-1.1S255.8,385.7,255.8,385.7z"/>
		<path fill="#231F20" d="M255.9,379.2c0,0-0.9,2.5,0,3.3c0.9,0.7,5,1,7.7,0.6c2.7-0.4,7.4-0.5,7.3-1.4c-0.1-0.9,0.5-2.5-0.8-2.5
			S260.9,380.8,255.9,379.2z"/>
		<path fill="#231F20" d="M288,360.2c0,0-2.4-0.2-5.3,0.4c-2.9,0.6-6.6,0.5-7.2-0.7c-0.6-1.2-1.9-4.4-0.5-4.8s4.9,1,6.8,1.6
			c0.9,0.3,4.9-0.8,6.2-0.6C289.5,356.4,288,358.2,288,360.2z"/>
		<path fill="#231F20" d="M288.7,362.1c0,0,1,2.8,0.3,3.2c-0.6,0.4-3.8,0.8-6.3,0.9c-2.5,0.1-6.6,0-7-0.5s-0.1-3.8-0.1-3.8
			s4.9,0.9,6.9,0.5C284.5,362,287,362.7,288.7,362.1z"/>
		<path fill="#231F20" d="M288.4,367.6c1.3,0,0.7,3-0.6,3.5c-1.3,0.5-9.6,0.7-11.2,0.1c-1.6-0.6-2.7-2.2-1.6-2.7
			S286.5,367.5,288.4,367.6z"/>
		<path fill="#231F20" d="M287.8,345.8c0.7,0.4,0.5,2.9-0.1,3.2c-0.6,0.4-3.3,0.4-5.4,0.3c-2.1-0.1-5.5-0.6-5.8-1.2
			c-0.3-0.6-0.5-3.3,0.3-3.8c1.3-0.7,4,1.3,5.7,1.2S286.5,345,287.8,345.8z"/>
		<path fill="#231F20" d="M288.3,339.4c0.7,0.4,0.5,2.9-0.1,3.2c-0.6,0.4-3.3,0.4-5.4,0.3c-2.1-0.1-5.5-0.6-5.8-1.2
			c-0.3-0.6-0.2-2.7,0.3-3.8c0.5-1.4,4,1.3,5.7,1.2S286.9,338.6,288.3,339.4z"/>
		<path fill="#231F20" d="M289,332.6c0.7,0.4,0.5,2.9-0.1,3.2c-3.1,1.6-8.8,1.2-11.2-0.9c0.7-0.6,0.7-4,1.5-4.5
			c1.3-0.7,2.8,2.1,4.5,1.9C285.5,332.1,287.7,331.7,289,332.6z"/>
		<path fill="#231F20" d="M289,324.4c0.7,0.4,0.3,5.3-0.3,5.7c-0.6,0.4-2.7,0.1-4.8,0c-2.1-0.1-4.1-1.5-4.4-2.1
			c-0.3-0.6,0.1-3.2,0.9-3.7c1.3-0.7,2.8,0.8,4.5,0.7S287.7,323.6,289,324.4z"/>
		<path fill="#231F20" d="M286.9,351.2c1.1,0.2,0.3,3.1-0.9,3.4c-1.2,0.4-8.2-0.2-9.5-0.9c-1.3-0.7-2-2.5-1-2.8
			S285.4,351,286.9,351.2z"/>
		<path fill="#231F20" d="M288.7,372.8c0,0,1.2,1.4-1.4,2.6c-2.7,1.2-9.6,1.4-11.3,0.4s-1.4-3.3-1.4-3.3S285.4,373.9,288.7,372.8z"
			/>
		<path fill="#231F20" d="M289.2,376.8c0,0,0.8,2.4,0,3.1s-4.5,0.9-7,0.5c-2.5-0.4-6.7-0.4-6.6-1.3s-0.4-2.3,0.7-2.3
			S284.7,378.2,289.2,376.8z"/>
		<path fill="#231F20" d="M275.4,396c0,0,1.9,2.9,3.8,2.9s5.4-0.3,6.9-1.1s3.2-4.2,4.1-5s1.2-2.9,1.2-2.9s-5.8,5-8.2,4.8
			c-2.4-0.1-4.9-1.6-6.5-1.7C275.1,392.9,275.3,395.1,275.4,396z"/>
		<path fill="#231F20" d="M285,300.7c0,0,5.5,0.9,5.3,3.4c-0.1,0.6,0.6,2.5,0,2.9c-1.9,1.3-3.9,1-6.1,0.5
			C283.9,306,285,300.7,285,300.7z"/>
		<path fill="#231F20" d="M284.1,309l-0.5,3.9c0,0,5.5,0.6,6.5-1.1c0.4-0.7,0.8-2.7,0.1-3.2C287.9,310.3,284.1,309,284.1,309z"/>
		<path fill="#231F20" d="M283.6,314.5c0,0-0.2,1.9-0.8,2.7s3.9,1.9,6.6,0.8c1-0.6,1-3.2,0.5-3.6S283.6,314.5,283.6,314.5z"/>
		<path fill="#231F20" d="M289.3,318.9c0.5,0.6-0.2,3.8-0.2,3.8s-5.4,1.3-7.9-0.5c-0.5-0.7,1.2-3.3,1.2-3.3S286.1,320.2,289.3,318.9
			z"/>
		<path fill="#231F20" d="M144.6,197.1c-6.9-1.9-16.8,1.4-19.5-0.6c-2.6-1.9-5.6-6.7-1.2-13.5c-14,4.6-18.9,31.1-6.5,40.1
			c7.3,5.3,15.9,0.8,22-5.3c3.6-3.5,9.3-3.6,12.8-6.8C155.2,206.8,149.2,198.4,144.6,197.1z M116.3,209.8c0,0,2.4-4,2.8-5.3
			c0.6-2-0.7-4.3-0.7-4.3s4.6,2.2,3.3,5.5C120.4,209,116.3,209.8,116.3,209.8z"/>
	</g>
</g>
<g id="alphabet" class="clickable">
	<title>Z</title>
	<g id="z">
		<path fill="#333333" d="M138.6,813.7L258,644.5c13.4-19,23.8-28.1,23.8-28.1v-0.9c0,0-10,1.3-23.8,1.3H144.2V552h233.6v46.7
			L258,768.7c-13.4,19-23.8,28.1-23.8,28.1v0.9c0,0,10-1.3,23.8-1.3h122v64.9H138.6V813.7z"/>
		<path fill="#333333" d="M412.9,824.1l81.8-102.5c11.2-13.8,19.5-20.3,19.5-20.3v-0.9c0,0-5.6,0.9-19.5,0.9h-78.3v-62.7h199v37.6
			l-81.3,102.5c-10.8,13.4-19.9,20.3-19.9,20.3v0.9c0,0,5.6-1.3,19.9-1.3h83.5v62.7H412.9V824.1z"/>
	</g>
</g>
</svg>
